<?xml version="1.0" standalone="no"?>
<!DOCTYPE svg PUBLIC "-//W3C//DTD SVG 1.1//EN" "http://www.w3.org/Graphics/SVG/1.1/DTD/svg11.dtd" >
<svg xmlns="http://www.w3.org/2000/svg" xmlns:xlink="http://www.w3.org/1999/xlink" version="1.1">
<metadata>
Created by FontForge 20170731 at Mon Apr 25 16:39:44 2022
 By Aleksey,,,
Copyright (c) 1988, 1995, 2001 Adobe Systems Incorporated.  All Rights Reserved.
</metadata>
<defs>
<font id="SerifGothicStd-Black" horiz-adv-x="1138" >
  <font-face 
    font-family="ITC Serif Gothic Std Black"
    font-weight="900"
    font-stretch="normal"
    units-per-em="2048"
    panose-1="2 14 9 2 2 2 6 2 4 4"
    ascent="1458"
    descent="-590"
    x-height="1004"
    cap-height="1458"
    bbox="-342 -512 2048 2013"
    underline-thickness="102"
    underline-position="-307"
    unicode-range="U+0020-FB02"
  />
<missing-glyph horiz-adv-x="1024" 
d="M0 0v1434h1024v-1434h-1024zM512 809l348 522h-696zM573 717l349 -522v1044zM164 102h696l-348 523zM102 1239v-1044l349 522z" />
    <glyph glyph-name="fi" unicode="fi" horiz-adv-x="1251" 
d="M659 1491v-356q-31 20 -81 20q-35 0 -55.5 -30.5t-20.5 -82.5v-38h162v-326q-34 22 -78 22h-84v-565q0 -85 47 -135h-467q47 50 47 135v565h-41q-45 0 -74 -22v326h115v102q0 94 29.5 162.5t85.5 109.5t129.5 60.5t167.5 19.5q74 0 118 33zM768 1004h420v-869
q0 -85 47 -135h-467q47 50 47 135v733q0 86 -47 136zM1008 1458q76 0 132 -53.5t56 -134.5t-56 -135t-132 -54t-132.5 54t-56.5 135t56.5 134.5t132.5 53.5z" />
    <glyph glyph-name="fl" unicode="fl" horiz-adv-x="1251" 
d="M659 1491v-356q-31 20 -81 20q-35 0 -55.5 -30.5t-20.5 -82.5v-38h162v-326q-34 22 -78 22h-84v-565q0 -85 47 -135h-467q47 50 47 135v565h-41q-45 0 -74 -22v326h115v102q0 94 29.5 162.5t85.5 109.5t129.5 60.5t167.5 19.5q74 0 118 33zM768 1458h420v-1323
q0 -85 47 -135h-467q47 50 47 135v1188q0 85 -47 135z" />
    <glyph glyph-name=".notdef" horiz-adv-x="1024" 
d="M0 0v1434h1024v-1434h-1024zM512 809l348 522h-696zM573 717l349 -522v1044zM164 102h696l-348 523zM102 1239v-1044l349 522z" />
    <glyph glyph-name=".null" horiz-adv-x="0" 
 />
    <glyph glyph-name="nonmarkingreturn" horiz-adv-x="682" 
 />
    <glyph glyph-name="space" unicode=" " horiz-adv-x="624" 
 />
    <glyph glyph-name="exclam" unicode="!" horiz-adv-x="796" 
d="M399 442q97 0 162.5 -66t65.5 -165t-65.5 -165t-162.5 -66t-162 66t-65 165t65 165t162 66zM584 545h-371q27 61 27 82q0 45 -7 110l-79 645q-6 41 -41 76h571q-35 -35 -41 -76l-80 -645q-6 -55 -6 -110q0 -21 27 -82z" />
    <glyph glyph-name="quotedbl" unicode="&#x22;" horiz-adv-x="681" 
d="M406 903v555h245v-555h-245zM31 903v555h245v-555h-245z" />
    <glyph glyph-name="numbersign" unicode="#" horiz-adv-x="1251" 
d="M1067 608l-10 -196h-180l-56 -412h-209l58 412h-191l-55 -412h-209l55 412h-176l8 196h199l33 244h-176l8 197h194l58 409h207l-56 -409h189l57 409h209l-57 -409h161l-10 -197h-178l-33 -244h160zM731 852h-188l-35 -244h190z" />
    <glyph glyph-name="dollar" unicode="$" horiz-adv-x="1251" 
d="M465 -152v123q-33 4 -108 21.5t-109 17.5q-65 0 -117 -28v593q38 -45 72.5 -79t81 -71t97 -57t99.5 -20q42 0 76.5 26t34.5 68q0 27 -12 51t-40 48t-50.5 40t-68.5 45t-69 44q-52 35 -89.5 69t-73.5 81.5t-55 109t-19 135.5q0 178 93.5 281.5t256.5 132.5v55q0 52 -33 90
h301v-160q53 -16 68 -16q46 0 84 10v-461q-27 54 -88 108t-113 54q-56 0 -81 -19t-25 -59q0 -24 12 -45t38 -41t51.5 -35.5t67.5 -39.5t70 -43q50 -34 88 -69.5t74.5 -87t56 -121.5t19.5 -155q0 -172 -86.5 -285t-235.5 -159v-51q0 -28 11 -57t28 -44h-307z" />
    <glyph glyph-name="percent" unicode="%" horiz-adv-x="1933" 
d="M1102 375q0 162 111 269.5t266 107.5t265.5 -107.5t110.5 -269.5q0 -160 -110.5 -267.5t-265.5 -107.5t-266 107.5t-111 267.5zM1479 522q-64 0 -106 -41t-42 -106q0 -64 42 -105t106 -41q63 0 105 41t42 105q0 65 -41.5 106t-105.5 41zM76 1081q0 162 111 269.5
t266 107.5t265.5 -107.5t110.5 -269.5q0 -160 -110.5 -267t-265.5 -107t-266 107t-111 267zM453 1229q-64 0 -106 -41.5t-42 -106.5q0 -64 42 -104.5t106 -40.5t105.5 40.5t41.5 104.5q0 65 -41.5 106.5t-105.5 41.5zM1204 1491h332q-36 -22 -78 -100l-715 -1276
q-26 -50 -26 -82q0 -29 16 -66h-321q55 63 75 99l715 1259q33 60 33 86q0 38 -31 80z" />
    <glyph glyph-name="ampersand" unicode="&#x26;" horiz-adv-x="1366" 
d="M1319 840v-406h-100q-17 -222 -179 -348q-153 -119 -381 -119q-167 0 -302.5 70t-215.5 201t-80 299q0 99 40.5 192.5t113.5 155.5q-37 62 -37 143q0 198 125.5 330.5t325.5 132.5q49 0 94 -10q74 -11 78 -11q48 0 69 21v-453q-86 60 -170 60q-56 0 -92.5 -42.5
t-36.5 -99.5q0 -43 33 -82t76 -53q-76 -11 -126 -66t-50 -132q0 -86 57 -139.5t141 -53.5t141.5 53.5t57.5 139.5q0 66 -35 111t-104 77v4h414q53 0 143 25z" />
    <glyph glyph-name="quotesingle" unicode="'" horiz-adv-x="454" 
d="M104 903v555h246v-555h-246z" />
    <glyph glyph-name="parenleft" unicode="(" horiz-adv-x="909" 
d="M526 1491l234 -408q-159 -82 -248.5 -231.5t-89.5 -319.5t89.5 -319t248.5 -231l-234 -396q-8 51 -41.5 91.5t-89.5 86.5q-176 145 -259 344t-83 431q0 492 342 774q26 22 43.5 38t38 39t33 48.5t16.5 52.5z" />
    <glyph glyph-name="parenright" unicode=")" horiz-adv-x="909" 
d="M150 1083l233 408q8 -51 41.5 -91.5t89.5 -86.5q342 -282 342 -774q0 -232 -83 -431t-259 -344q-26 -22 -43.5 -38t-38 -39t-33 -48.5t-16.5 -52.5l-233 396q159 82 248 231t89 319t-89.5 319.5t-247.5 231.5z" />
    <glyph glyph-name="asterisk" unicode="*" horiz-adv-x="1024" 
d="M676 688h-326q41 38 58.5 104t17.5 132l-4 4q-38 -18 -88 -68.5t-68 -103.5l-162 274q64 -3 128.5 12.5t101.5 42.5q-125 55 -225 58l151 260q53 -100 166 -174q0 146 -78 229h320q-68 -84 -68 -225q136 72 156 178l164 -285q-151 19 -254 -43v-4q137 -72 249 -59
l-151 -270q-37 96 -160 178l-4 -4q0 -66 17.5 -132t58.5 -104z" />
    <glyph glyph-name="plus" unicode="+" horiz-adv-x="1228" 
d="M496 621v383h237v-383h381v-238h-381v-383h-237v383h-381v238h381z" />
    <glyph glyph-name="comma" unicode="," horiz-adv-x="624" 
d="M109 412h501q-61 -55 -102 -127l-170 -316q-25 -48 -25 -71q0 -27 23 -50h-289l76 383q12 62 12 95q0 40 -26 86z" />
    <glyph glyph-name="hyphen" unicode="-" horiz-adv-x="569" 
d="M66 315v334h276q87 0 166 35v-334h-328q-62 0 -114 -35z" />
    <glyph glyph-name="period" unicode="." horiz-adv-x="624" 
d="M311 442q97 0 162.5 -66t65.5 -165t-65.5 -165t-162.5 -66t-162 66t-65 165t65 165t162 66z" />
    <glyph glyph-name="slash" unicode="/" horiz-adv-x="569" 
d="M375 1491h239l-417 -1524h-240z" />
    <glyph glyph-name="zero" unicode="0" horiz-adv-x="1251" 
d="M1180 913v-370q0 -111 -40.5 -215t-112 -184t-176.5 -128.5t-226 -48.5q-120 0 -225 48.5t-176 128.5t-111.5 184t-40.5 215v370q0 111 40.5 215.5t111.5 185t176 129t225 48.5q121 0 226 -48.5t176.5 -129t112 -185t40.5 -215.5zM498 942v-426q0 -66 35 -98.5t94 -32.5
q57 0 92 32.5t35 98.5v426q0 66 -35 98.5t-92 32.5q-59 0 -94 -32.5t-35 -98.5z" />
    <glyph glyph-name="one" unicode="1" horiz-adv-x="1251" 
d="M590 1458h432q-47 -50 -47 -135v-1188q0 -85 47 -135h-537q47 50 47 135v729h-4l-96 -147l-352 262q66 19 108 61z" />
    <glyph glyph-name="two" unicode="2" horiz-adv-x="1251" 
d="M498 868h-437q37 76 37 138q0 104 48 196t126 154.5t179 98.5t206 36q106 0 195 -31t150.5 -84.5t104.5 -126.5t63 -155.5t20 -171.5q0 -119 -79.5 -248.5t-238.5 -300.5h166q40 0 82 9.5t64 25.5v-408h-1133l664 813q57 67 57 133q0 127 -129 127q-67 0 -106 -43.5
t-39 -101.5v-60z" />
    <glyph glyph-name="three" unicode="3" horiz-adv-x="1251" 
d="M152 1028v430h983l-304 -469q165 -33 262 -165.5t97 -303.5q0 -160 -76.5 -287.5t-202 -196.5t-272.5 -69q-150 0 -279.5 74.5t-203.5 195t-74 255.5q0 65 -35 108h475q-16 -46 -16 -65q0 -61 37.5 -105.5t95.5 -44.5q60 0 96.5 38.5t36.5 100.5q0 47 -34 86t-74 39
q-46 0 -58 -4l-282 201l163 215h-256q-50 0 -79 -33z" />
    <glyph glyph-name="four" unicode="4" horiz-adv-x="1251" 
d="M389 588h258v397l-4 4zM1214 621v-377h-157v-109q0 -85 47 -135h-504q47 50 47 135v109h-371l-251 346q48 22 84 74l542 794h453q-47 -50 -47 -135v-735h63q48 0 94 33z" />
    <glyph glyph-name="five" unicode="5" horiz-adv-x="1251" 
d="M440 623l-301 127q18 40 25 98l74 610h794v-403q-41 30 -96 30h-330v-75q10 6 39 10q14 2 43 2q130 0 239 -73.5t169.5 -190t60.5 -244.5q0 -93 -33 -179t-91 -152t-133.5 -115t-164 -75t-178.5 -26q-229 0 -399 170q-50 53 -113 80l346 344q8 -73 53.5 -124.5
t114.5 -51.5q65 0 110.5 44t45.5 103q0 60 -45.5 105t-110.5 45q-32 0 -65.5 -16.5t-53.5 -42.5z" />
    <glyph glyph-name="six" unicode="6" horiz-adv-x="1251" 
d="M477 1458h600l-305 -411q99 -11 180.5 -59t134 -120t81 -159.5t28.5 -180.5q0 -112 -45 -215t-120.5 -179t-182 -121.5t-223.5 -45.5q-140 0 -266 76.5t-202.5 206.5t-76.5 278q0 81 13.5 149t45 133t60.5 111.5t81 121.5l7.5 10.5t6.5 9t7 10.5l184 266q25 37 25 64
q0 14 -10 31.5t-23 23.5zM770 520q0 56 -39 94.5t-92 38.5q-55 0 -94 -38.5t-39 -94.5t39 -95.5t94 -39.5q53 0 92 39.5t39 95.5z" />
    <glyph glyph-name="seven" unicode="7" horiz-adv-x="1251" 
d="M156 1030v428h1079l-492 -1304q-22 -57 -22 -78q0 -46 41 -76h-596q73 69 92 117l367 944h-387q-51 0 -82 -31z" />
    <glyph glyph-name="eight" unicode="8" horiz-adv-x="1251" 
d="M629 1491q94 0 182.5 -36.5t154.5 -98t106 -148t40 -180.5q0 -93 -49 -166q74 -67 106.5 -148t32.5 -186q0 -149 -76.5 -278.5t-209.5 -206t-289 -76.5t-290 76.5t-212 206t-78 278.5q0 205 143 334q-45 67 -45 166q0 126 68 233.5t179 168.5t237 61zM473 532
q0 -66 43 -106.5t109 -40.5t108.5 40.5t42.5 106.5q0 67 -42.5 107.5t-108.5 40.5t-109 -41t-43 -107zM727 993q0 44 -27.5 72.5t-70.5 28.5t-71 -28.5t-28 -72.5t28 -72t71 -28t70.5 28t27.5 72z" />
    <glyph glyph-name="nine" unicode="9" horiz-adv-x="1251" 
d="M774 0h-600l305 412q-131 15 -229.5 93t-146.5 189t-48 236q0 112 45 215.5t121 179t182.5 121t223.5 45.5q140 0 266 -76.5t202 -206.5t76 -278q0 -81 -13.5 -149t-45 -133t-60.5 -111.5t-81 -121.5l-21 -30l-184 -266q-25 -37 -25 -64q0 -14 10 -31.5t23 -23.5z
M481 938q0 -56 39 -94.5t92 -38.5q55 0 94 38.5t39 94.5t-39.5 95.5t-93.5 39.5q-53 0 -92 -39.5t-39 -95.5z" />
    <glyph glyph-name="colon" unicode=":" horiz-adv-x="624" 
d="M311 987q97 0 162.5 -66t65.5 -165t-65.5 -165.5t-162.5 -66.5t-162 66t-65 166q0 99 65 165t162 66zM311 442q97 0 162.5 -66t65.5 -165t-65.5 -165t-162.5 -66t-162 66t-65 165t65 165t162 66z" />
    <glyph glyph-name="semicolon" unicode=";" horiz-adv-x="624" 
d="M109 412h501q-61 -55 -102 -127l-170 -316q-25 -48 -25 -71q0 -27 23 -50h-289l76 383q12 62 12 95q0 40 -26 86zM311 987q97 0 162.5 -66t65.5 -165t-65.5 -165.5t-162.5 -66.5t-162 66t-65 166q0 99 65 165t162 66z" />
    <glyph glyph-name="less" unicode="&#x3c;" horiz-adv-x="1228" 
d="M1135 203v-236l-1041 439v192l1041 438v-235l-721 -299z" />
    <glyph glyph-name="equal" unicode="=" horiz-adv-x="1228" 
d="M1114 858v-237h-999v237h999zM1114 383v-238h-999v238h999z" />
    <glyph glyph-name="greater" unicode="&#x3e;" horiz-adv-x="1228" 
d="M94 203l721 299l-721 299v235l1041 -438v-192l-1041 -439v236z" />
    <glyph glyph-name="question" unicode="?" horiz-adv-x="796" 
d="M109 528v390q41 -41 102 -41q53 0 88 34t35 90t-34.5 87.5t-88.5 31.5q-42 0 -79 -22t-56 -56v437q13 -9 24 -11q12 -6 31 -6q8 0 26.5 6.5t28.5 8.5q44 14 95 14q206 0 334 -132.5t128 -342.5t-128 -342.5t-334 -132.5q-15 0 -42 6t-42 6q-28 0 -88 -25zM319 430
q97 0 162.5 -66t65.5 -165t-65.5 -165.5t-162.5 -66.5t-162 66t-65 166q0 99 65 165t162 66z" />
    <glyph glyph-name="at" unicode="@" horiz-adv-x="1638" 
d="M791 514q93 0 150.5 62.5t57.5 152.5q0 74 -44 119t-117 45q-85 0 -143 -64.5t-58 -146.5q0 -73 41.5 -120.5t112.5 -47.5zM1059 997l18 99h193l-90 -488q-1 -5 -7 -31t-6 -40q0 -41 27 -41q74 0 132 79.5t58 231.5q0 239 -147.5 367.5t-388.5 128.5
q-252 0 -403.5 -160.5t-151.5 -415.5q0 -264 163 -417.5t427 -153.5q229 0 387 120h200q-109 -151 -263 -230t-341 -79q-217 0 -398 96.5t-288.5 271.5t-107.5 392q0 160 62 302.5t167 243.5t249 159.5t304 58.5q135 0 263 -44t227.5 -122.5t160 -196.5t60.5 -256
q0 -132 -44 -239.5t-107 -170.5t-139 -105.5t-135 -58t-100 -15.5q-43 0 -74 26.5t-32 71.5l-4 4q-38 -43 -92 -71.5t-105 -28.5q-134 0 -236 108t-102 256q0 121 50 228.5t146 176t216 68.5q161 0 252 -125z" />
    <glyph glyph-name="A" unicode="A" horiz-adv-x="1478" 
d="M420 1458h557l485 -1331q25 -68 84 -127h-590q15 34 15 78q0 36 -31 131h-401q-35 -56 -35 -133q0 -50 22 -66v-10h-594q50 48 101 188l6 15l405 1100q21 60 21 90q0 23 -11.5 37t-33.5 28zM639 545h197l-97 448h-8z" />
    <glyph glyph-name="B" unicode="B" horiz-adv-x="1251" 
d="M102 135v1356q53 -47 131 -47q34 0 136.5 23.5t195.5 23.5q101 0 196 -29t172 -83.5t124 -142t47 -194.5q0 -81 -33 -206q119 -126 119 -349q0 -77 -21 -148.5t-64 -133t-103.5 -107.5t-143 -72t-178.5 -26h-625q47 50 47 135zM545 1073v-655q106 0 166.5 52t60.5 155
q0 64 -46 115t-110 69v8q46 15 70.5 52t24.5 89q0 53 -44 84t-102 31h-20z" />
    <glyph glyph-name="C" unicode="C" 
d="M1065 557v-590q-30 10 -59 13q-20 4 -62 4q-18 0 -70 -9q-46 -8 -77 -8q-154 0 -292 61.5t-236 164.5t-155 243.5t-57 292.5t57 292.5t155 243.5t236 164.5t292 61.5q31 0 77 -8t70 -8q72 0 121 16v-578q-52 55 -119.5 85.5t-138.5 29.5q-125 0 -206 -89t-81 -214
q0 -124 81 -209.5t206 -85.5q72 0 139.5 33t118.5 94z" />
    <glyph glyph-name="D" unicode="D" horiz-adv-x="1366" 
d="M123 135v1356q60 -47 135 -47q34 0 146.5 23.5t205.5 23.5q140 0 269.5 -64.5t220.5 -168.5t145.5 -238.5t54.5 -271.5q0 -199 -87.5 -369.5t-249 -274.5t-361.5 -104h-526q47 50 47 135zM565 1049v-607q128 0 210.5 83.5t82.5 213.5q0 144 -81.5 227t-211.5 83z" />
    <glyph glyph-name="E" unicode="E" horiz-adv-x="1024" 
d="M948 440v-440h-905q47 50 47 135v1188q0 85 -47 135h905v-440q-85 39 -221 39h-195v-154h105q93 0 160 29v-389q-65 28 -160 28h-105v-170h195q136 0 221 39z" />
    <glyph glyph-name="F" unicode="F" horiz-adv-x="1024" 
d="M549 571v-436q0 -85 47 -135h-557q47 50 47 135v1188q0 85 -47 135h952v-434q-63 33 -190 33h-252v-154h149q70 0 136 29v-389q-64 28 -136 28h-149z" />
    <glyph glyph-name="G" unicode="G" horiz-adv-x="1366" 
d="M1065 1491v-553q-134 93 -242 90q-125 0 -205.5 -89t-80.5 -214q0 -124 80.5 -209.5t205.5 -85.5q64 0 92 25v114h-141q-51 0 -86 -14v352q35 -14 86 -14h559v-582q0 -65 37 -131q-90 -91 -240.5 -152t-316.5 -61q-154 0 -292 61.5t-235.5 164.5t-154.5 243t-57 293
q0 203 96 378.5t263 279.5t364 104q31 0 77 -8t70 -8q72 0 121 16z" />
    <glyph glyph-name="H" unicode="H" horiz-adv-x="1366" 
d="M573 903h218v420q0 84 -48 135h557q-47 -50 -47 -135v-1188q0 -85 47 -135h-557q48 51 48 135v416h-218v-416q0 -84 48 -135h-558q48 51 48 135v1188q0 84 -48 135h558q-48 -51 -48 -135v-420z" />
    <glyph glyph-name="I" unicode="I" horiz-adv-x="681" 
d="M63 1458h558q-48 -51 -48 -135v-1188q0 -84 48 -135h-558q48 51 48 135v1188q0 84 -48 135z" />
    <glyph glyph-name="J" unicode="J" horiz-adv-x="796" 
d="M-2 -47v436q45 -37 123 -37q54 0 79 29.5t25 93.5v848q0 85 -47 135h557q-47 -50 -47 -135v-891q0 -224 -127 -344.5t-350 -120.5q-17 0 -53.5 2t-55.5 2q-54 0 -104 -18z" />
    <glyph glyph-name="K" unicode="K" horiz-adv-x="1366" 
d="M53 1458h557q-47 -50 -47 -135v-328h4l199 330q22 37 22 61q0 32 -8 72h635l-538 -688q96 -46 178.5 -123.5t138.5 -166.5t93 -178t54 -173q12 -70 74 -129h-571q10 58 10 82q0 182 -291 395v-342q0 -85 47 -135h-557q47 50 47 135v1188q0 85 -47 135z" />
    <glyph glyph-name="L" unicode="L" horiz-adv-x="909" 
d="M578 1323v-922h129q127 0 190 33v-434h-829q47 50 47 135v1188q0 85 -47 135h557q-47 -50 -47 -135z" />
    <glyph glyph-name="M" unicode="M" horiz-adv-x="1705" 
d="M1030 1458h518q-43 -33 -43 -100q0 -32 6 -72l164 -1128q15 -112 82 -158h-569q45 33 45 106q0 42 -10 124t-11 98l-41 518h-4l-319 -879l-307 879h-4l-41 -518q-2 -14 -8.5 -67t-9.5 -88t-3 -67q0 -73 45 -106h-569q27 18 44 47.5t22.5 48t15.5 62.5l151 1128q6 40 6 72
q0 67 -43 100h527l176 -559h4z" />
    <glyph glyph-name="N" unicode="N" horiz-adv-x="1478" 
d="M51 1458h469l414 -727l4 4v588q0 85 -47 135h536q-47 -50 -47 -135v-1188q0 -85 47 -135h-469l-413 752l-4 -4v-613q0 -85 47 -135h-537q47 50 47 135v1188q0 85 -47 135z" />
    <glyph glyph-name="O" unicode="O" horiz-adv-x="1593" 
d="M797 1491q154 0 292 -61.5t235.5 -164.5t154.5 -243t57 -293t-57 -293t-154.5 -243t-235.5 -164.5t-292 -61.5t-292 61.5t-236 164.5t-155 243.5t-57 292.5t57 292.5t155 243.5t236 164.5t292 61.5zM520 729q0 -130 80.5 -214.5t196.5 -84.5t196 84.5t80 214.5t-80 214.5
t-196 84.5t-196.5 -84.5t-80.5 -214.5z" />
    <glyph glyph-name="P" unicode="P" horiz-adv-x="1251" 
d="M600 0h-557q47 50 47 135v1356q53 -47 131 -47q34 0 146.5 23.5t205.5 23.5q131 0 246.5 -37.5t203.5 -108t139.5 -180.5t51.5 -245q0 -156 -76 -284.5t-206 -201t-285 -72.5q-33 0 -94 7v-234q0 -85 47 -135zM553 1073v-315h53q73 0 119.5 40.5t46.5 116.5t-46.5 117
t-119.5 41h-53z" />
    <glyph glyph-name="Q" unicode="Q" horiz-adv-x="1593" 
d="M1577 -90h-514q8 13 8 43q0 12 -7.5 30.5t-19.5 26.5q-121 -43 -247 -43q-154 0 -292 61.5t-236 164.5t-155 243.5t-57 292.5t57 292.5t155 243.5t236 164.5t292 61.5t292 -61.5t235.5 -164.5t154.5 -243t57 -293q0 -149 -53 -284.5t-150 -239.5l174 -221q24 -33 70 -74z
M592 676h405q-6 -12 -6 -41q0 -46 35 -70q47 68 47 164q0 130 -80 214.5t-196 84.5t-196.5 -84.5t-80.5 -214.5q0 -124 74 -211.5t178 -87.5l-139 197q-25 34 -41 45v4z" />
    <glyph glyph-name="R" unicode="R" horiz-adv-x="1366" 
d="M111 135v1356q53 -47 131 -47q34 0 146.5 23.5t205.5 23.5q119 0 222 -33.5t181.5 -97t123 -162t44.5 -221.5q0 -85 -34.5 -169.5t-94.5 -150.5q127 -65 209 -206t82 -316q0 -85 47 -135h-557q47 50 47 135q0 91 -86.5 179t-204.5 112v-291q0 -84 48 -135h-558
q48 51 48 135zM573 1073v-270q32 0 60 6t55.5 20t43.5 42t16 67t-16 67t-43.5 42t-55.5 20t-60 6z" />
    <glyph glyph-name="S" unicode="S" horiz-adv-x="1024" 
d="M72 -16v591q38 -45 72.5 -79t81 -71t97 -57t99.5 -20q42 0 76 26t34 68q0 23 -10 44.5t-24.5 38t-40.5 36.5t-47 34t-56.5 36.5t-58.5 38.5q-51 34 -89.5 68t-75 81.5t-56 109.5t-19.5 136q0 109 36.5 191.5t102.5 133t152.5 76t192.5 25.5q46 0 119.5 -21.5t82.5 -21.5
q57 0 84 27v-478q-27 54 -87.5 108t-112.5 54q-56 0 -81.5 -19t-25.5 -59q0 -24 12.5 -44.5t38.5 -40.5t51.5 -35.5t67.5 -40t70 -43.5q50 -34 88 -69.5t74 -87t55.5 -121.5t19.5 -155q0 -156 -73 -265.5t-192.5 -160.5t-272.5 -51q-52 0 -143 21.5t-126 21.5
q-63 0 -116 -26z" />
    <glyph glyph-name="T" unicode="T" horiz-adv-x="1024" 
d="M6 1028v430h1012v-430q-59 29 -152 29h-123v-922q0 -84 48 -135h-558q48 51 48 135v922h-123q-93 0 -152 -29z" />
    <glyph glyph-name="U" unicode="U" horiz-adv-x="1366" 
d="M90 553v770q0 85 -47 135h557q-47 -50 -47 -135v-739q0 -90 28.5 -132t102.5 -42t100.5 41t26.5 133v739q0 85 -47 135h557q-47 -50 -47 -135v-770q0 -119 -49 -228.5t-130.5 -187.5t-191.5 -124t-227 -46q-156 0 -291 78t-215 213t-80 295z" />
    <glyph glyph-name="V" unicode="V" horiz-adv-x="1478" 
d="M1059 0h-557l-490 1346q-19 51 -80 112h590q-14 -32 -14 -78q0 -13 3.5 -31t7.5 -31.5t10.5 -36t9.5 -32.5l192 -680h4l205 680q4 13 14 41.5t15.5 50.5t5.5 41q0 49 -23 66v10h594q-9 -8 -16.5 -17t-15 -20.5t-13 -20t-12 -23t-10.5 -22t-10.5 -25t-9 -23.5t-10 -26.5
t-9.5 -25.5l-406 -1099q-20 -58 -20 -90q0 -37 45 -66z" />
    <glyph glyph-name="W" unicode="W" horiz-adv-x="1933" 
d="M748 1458h428q-33 -22 -33 -82q0 -21 8 -57l129 -600h4l154 586q2 7 6.5 22.5t7 27.5t2.5 23q0 38 -20 80h557q-63 -66 -101 -176l-391 -1149q-14 -47 -14 -74q0 -35 28 -59h-415l-146 621h-4l-98 -510q-6 -30 -6 -54q0 -35 22 -57h-399l-442 1335q-27 82 -82 123h569
q-31 -34 -31 -72q0 -18 15 -75l141 -600h4l135 630q6 27 6 58q0 13 -6.5 25t-11 17t-16.5 17z" />
    <glyph glyph-name="X" unicode="X" horiz-adv-x="1478" 
d="M848 1458h627q-60 -42 -101 -112l-317 -545l450 -731q26 -45 70 -70h-684q33 33 33 59q0 41 -49 131l-138 254h-4l-141 -254q-45 -79 -45 -120q0 -37 41 -70h-690q52 25 84 80l422 721l-324 547q-33 54 -96 110h639q-25 -32 -25 -67q0 -29 33 -97l98 -200h4l103 200
q4 8 14.5 27t14.5 27.5t8 20.5t4 20q0 41 -31 69z" />
    <glyph glyph-name="Y" unicode="Y" horiz-adv-x="1366" 
d="M954 0h-546q43 46 43 92v582l-437 702q-36 56 -69 82h590q-15 -26 -15 -53q0 -35 72 -148l98 -155l98 155q72 113 72 148q0 29 -14 53h577q-19 -19 -55 -69l-455 -715v-582q0 -44 41 -92z" />
    <glyph glyph-name="Z" unicode="Z" horiz-adv-x="1251" 
d="M145 1026v432h1110l-573 -1057h403q56 0 113 31v-432h-1223l596 1057h-323q-49 0 -103 -31z" />
    <glyph glyph-name="bracketleft" unicode="[" horiz-adv-x="681" 
d="M100 -297v1671q0 48 -39 84h517v-280q-25 10 -76 10h-41v-1299h41q48 0 76 11v-281h-517q39 36 39 84z" />
    <glyph glyph-name="backslash" unicode="\" horiz-adv-x="569" 
d="M-43 1491h240l417 -1524h-239z" />
    <glyph glyph-name="bracketright" unicode="]" horiz-adv-x="681" 
d="M582 1374v-1671q0 -48 39 -84h-517v281q28 -11 76 -11h41v1299h-41q-51 0 -76 -10v280h517q-39 -36 -39 -84z" />
    <glyph glyph-name="asciicircum" unicode="^" horiz-adv-x="1228" 
d="M387 711h-237l356 747h217l356 -747h-239l-226 508z" />
    <glyph glyph-name="underscore" unicode="_" horiz-adv-x="1024" 
d="M1024 -256h-1024v102h1024v-102z" />
    <glyph glyph-name="grave" unicode="`" horiz-adv-x="569" 
d="M-135 1458h426l205 -303h-234z" />
    <glyph glyph-name="a" unicode="a" 
d="M688 395v213q-49 64 -139 64q-57 0 -96 -52t-39 -120q0 -65 39 -116.5t96 -51.5q91 0 139 63zM1040 752v-617q0 -85 47 -135h-339v74h-5q-63 -107 -202 -107q-101 0 -191 43.5t-153 116.5t-99.5 171t-36.5 204q0 142 61.5 264t172.5 196t246 74q97 0 174 -32t162 -97
q6 -5 33 -26t38.5 -29t34 -21.5t41 -18.5t37.5 -5h20v-4q-41 -13 -41 -51z" />
    <glyph glyph-name="b" unicode="b" 
d="M455 608v-213q48 -63 139 -63q57 0 96 52t39 120q0 65 -39 116.5t-96 51.5q-90 0 -139 -64zM455 1458v-454q37 20 71 26q37 6 76 6q135 0 245.5 -74t172 -196t61.5 -264t-61.5 -264.5t-172.5 -196.5t-245 -74q-97 0 -174 32t-162 97q-8 6 -33.5 26t-38 29t-34 22
t-40.5 18.5t-38 5.5h-21v4q41 17 41 51v1071q0 85 -47 135h400z" />
    <glyph glyph-name="c" unicode="c" horiz-adv-x="796" 
d="M735 1036v-424q-54 60 -160 60q-66 0 -113.5 -50.5t-47.5 -119.5t47.5 -119.5t113.5 -50.5q107 0 160 59v-424q-8 6 -28 10q-15 3 -31 3t-47 -7q-6 -1 -18 -2.5t-21 -2.5t-15 -1q-107 0 -206 46.5t-168 121.5t-110.5 172t-41.5 195q0 132 69 254.5t191.5 201t265.5 78.5
q32 0 56 -6q5 -1 23.5 -3.5t25.5 -2.5q37 0 55 12z" />
    <glyph glyph-name="d" unicode="d" 
d="M688 395v213q-49 64 -139 64q-57 0 -96 -52t-39 -120q0 -65 39 -116.5t96 -51.5q91 0 139 63zM688 1004v319q0 85 -47 135h399v-1206q0 -34 41 -51v-4h-20q-19 0 -38 -5.5t-40.5 -18.5t-34 -22t-38 -29t-33.5 -26q-85 -65 -162 -97t-174 -32q-101 0 -191 43.5t-153 116.5
t-99.5 171t-36.5 204q0 142 61.5 264t172.5 196t246 74q91 0 147 -32z" />
    <glyph glyph-name="e" unicode="e" 
d="M1094 379h-664q29 -49 81.5 -79t109.5 -30q114 0 208 58v-344q-15 7 -28 10q-10 2 -31 2q-28 0 -86 -14q-78 -15 -115 -15q-142 0 -263.5 79t-189 201.5t-67.5 254.5t67.5 254.5t189 201t263.5 78.5q100 0 183.5 -29t142 -79.5t98.5 -120t59 -149t19 -166.5
q0 -76 23 -113zM414 588h291q-8 55 -47.5 94t-98.5 39t-98 -38.5t-47 -94.5z" />
    <glyph glyph-name="f" unicode="f" horiz-adv-x="681" 
d="M659 1491v-356q-31 20 -81 20q-35 0 -55.5 -30.5t-20.5 -82.5v-38h162v-326q-34 22 -78 22h-84v-565q0 -85 47 -135h-467q47 50 47 135v565h-41q-45 0 -74 -22v326h115v102q0 94 29.5 162.5t85.5 109.5t129.5 60.5t167.5 19.5q74 0 118 33z" />
    <glyph glyph-name="g" unicode="g" 
d="M229 -446v387q46 -37 110 -60.5t126 -23.5q52 0 99.5 11.5t85.5 45.5t38 86q-31 -19 -70 -25q-36 -8 -77 -8q-135 0 -247 74t-174.5 197t-62.5 264t62.5 263.5t174.5 196.5t247 74q97 0 174 -32t162 -97q6 -5 33 -26t38.5 -29t34 -21.5t41 -18.5t37.5 -5h20v-4
q-41 -17 -41 -51v-666q0 -54 -5 -102.5t-19.5 -104.5t-37.5 -102.5t-61.5 -90.5t-89.5 -74t-125 -48.5t-163 -18.5q-41 0 -144 15q-72 14 -110 14q-29 0 -56 -20zM688 387v229q-15 25 -55.5 40.5t-87.5 15.5q-57 0 -96 -51.5t-39 -116.5q0 -68 39 -120t96 -52q48 0 88 15
t55 40z" />
    <glyph glyph-name="h" unicode="h" 
d="M1096 0h-467q47 50 47 135v457q0 60 -28 84t-83 24q-43 0 -72.5 -18.5t-29.5 -46.5v-500q0 -85 47 -135h-467q47 50 47 135v1188q0 85 -47 135h420v-461q51 39 125 39q102 0 183 -22t145 -69t98.5 -128.5t34.5 -193.5v-488q0 -85 47 -135z" />
    <glyph glyph-name="i" unicode="i" horiz-adv-x="569" 
d="M51 1004h420v-869q0 -85 47 -135h-467q47 50 47 135v733q0 86 -47 136zM293 1458q76 0 132 -53.5t56 -134.5t-56 -135t-132 -54t-132.5 54t-56.5 135t56.5 134.5t132.5 53.5z" />
    <glyph glyph-name="j" unicode="j" horiz-adv-x="569" 
d="M51 1004h420v-875q0 -103 -13 -184t-45 -152t-83.5 -117.5t-131 -73t-184.5 -26.5q-107 0 -149 -31v361q43 -27 94 -27q82 0 110.5 47.5t28.5 173.5v768q0 86 -47 136zM293 1458q76 0 132 -53.5t56 -134.5t-56 -135t-132 -54t-132.5 54t-56.5 135t56.5 134.5t132.5 53.5z
" />
    <glyph glyph-name="k" unicode="k" 
d="M510 0h-467q47 50 47 135v1188q0 85 -47 135h420v-696l133 129q47 47 47 61q0 30 -14 52h512l-371 -363q114 -61 173 -129.5t79 -152.5t20 -224q0 -84 48 -135h-467q47 50 47 135q0 117 -52 197.5t-155 93.5v-291q0 -85 47 -135z" />
    <glyph glyph-name="l" unicode="l" horiz-adv-x="569" 
d="M51 1458h420v-1323q0 -85 47 -135h-467q47 50 47 135v1188q0 85 -47 135z" />
    <glyph glyph-name="m" unicode="m" horiz-adv-x="1705" 
d="M500 0h-467q47 50 47 135v578q0 58 -45 106q59 14 113.5 42t95.5 57t85.5 56t103 44.5t128.5 17.5q195 0 328 -108q113 108 258 108q205 0 341 -119t136 -294v-488q0 -85 47 -135h-467q47 50 47 135v457q0 60 -27.5 84t-82.5 24q-43 0 -73 -18.5t-30 -46.5v-500
q0 -85 47 -135h-467q48 51 48 135v457q0 60 -28 84t-83 24q-43 0 -72.5 -18.5t-29.5 -46.5v-500q0 -85 47 -135z" />
    <glyph glyph-name="n" unicode="n" 
d="M1096 0h-467q47 50 47 135v457q0 60 -28 84t-83 24q-43 0 -72.5 -18.5t-29.5 -46.5v-500q0 -85 47 -135h-467q47 50 47 135v578q0 58 -45 106q59 14 113.5 42t95.5 57t85.5 56t103 44.5t128.5 17.5q205 0 341.5 -119t136.5 -294v-488q0 -85 47 -135z" />
    <glyph glyph-name="o" unicode="o" 
d="M37 502q0 107 40.5 205t110 170.5t169 115.5t212.5 43q150 0 273 -73t191.5 -195.5t68.5 -265.5q0 -144 -68.5 -266t-191.5 -195.5t-273 -73.5t-273 73.5t-191 195.5t-68 266zM569 672q-78 0 -123 -47t-45 -123t45 -123t123 -47t123 47t45 123t-45 123t-123 47z" />
    <glyph glyph-name="p" unicode="p" 
d="M455 621v-207q49 -64 139 -64q57 0 96 51t39 117q0 64 -39 114t-96 50q-90 0 -139 -61zM455 29v-312q0 -81 47 -131h-447q47 50 47 131v1043q0 32 -41 49v4h21q16 0 33.5 5t30 10.5t32.5 18t29 19t31 23.5t28 22q84 63 161 94t175 31q134 0 245 -72.5t172.5 -191.5
t61.5 -256t-61.5 -256t-172.5 -191.5t-245 -72.5q-90 0 -147 33z" />
    <glyph glyph-name="q" unicode="q" 
d="M688 414v207q-49 61 -139 61q-57 0 -96 -50t-39 -114q0 -66 39 -117t96 -51q90 0 139 64zM688 -283v312q-57 -33 -147 -33q-134 0 -245.5 72.5t-173 191.5t-61.5 256t61.5 256t173 191.5t245.5 72.5q98 0 175 -31t161 -94q6 -5 28 -22t31 -23.5t29 -19t32.5 -18t30 -10.5
t33.5 -5h20v-4l-14 -4q-27 -15 -27 -45v-1043q0 -81 47 -131h-446q47 50 47 131z" />
    <glyph glyph-name="r" unicode="r" horiz-adv-x="681" 
d="M694 1065v-412q-37 21 -98 21q-32 0 -73.5 -15t-69.5 -43v-481q0 -85 47 -135h-467q47 50 47 135v733q0 86 -47 136h420v-48h4q25 37 64 59.5t71 22.5q63 0 102 27z" />
    <glyph glyph-name="s" unicode="s" horiz-adv-x="909" 
d="M764 1036v-338q-14 7 -57 29.5t-59.5 29t-51.5 15t-72 8.5q-24 0 -39.5 -13t-15.5 -36q0 -20 21.5 -36t56 -29.5t76 -29t83.5 -40.5t76.5 -58t56 -87.5t21.5 -122.5q0 -92 -37.5 -163t-101.5 -113t-141.5 -63.5t-163.5 -21.5q-59 0 -140.5 19.5t-119.5 21.5
q-45 0 -78 -16v409q61 -51 144 -99t138 -48q103 0 103 57q0 25 -29 46t-72.5 36t-94 41.5t-94 59.5t-72.5 93t-29 138q0 146 96 228.5t246 82.5q26 0 133 -10q86 -12 125 -12q58 0 92 22z" />
    <glyph glyph-name="t" unicode="t" horiz-adv-x="681" 
d="M512 700v-565q0 -85 47 -135h-467q47 50 47 135v565h-149l522 666v-362h170v-304h-170z" />
    <glyph glyph-name="u" unicode="u" 
d="M43 1004h467q-47 -50 -47 -136v-456q0 -60 28 -84.5t82 -24.5q43 0 73 19t30 47v499q0 86 -47 136h467q-47 -50 -47 -136v-577q0 -26 12 -55.5t33 -47.5v-4q-59 -14 -113.5 -42t-96 -57t-86 -56t-103 -44.5t-128.5 -17.5q-205 0 -341 119.5t-136 294.5v487q0 86 -47 136z
" />
    <glyph glyph-name="v" unicode="v" 
d="M690 1004h504q-45 -39 -74 -103l-354 -770q-18 -45 -18 -68q0 -31 40 -63h-378l-392 901q-25 61 -73 103h524q-17 -9 -29 -28.5t-12 -35.5q0 -26 12 -63l138 -410h4l137 410q12 37 12 63q0 16 -12 35.5t-29 28.5z" />
    <glyph glyph-name="w" unicode="w" horiz-adv-x="1705" 
d="M772 0h-354l-377 901q-24 59 -74 103h512q-28 -25 -28 -64q0 -33 4 -47l110 -324h4l113 324q4 14 4 47q0 38 -29 64h402q-29 -26 -29 -64q0 -33 4 -47l111 -324h4l111 324q4 14 4 47q0 38 -29 64h498q-50 -44 -74 -103l-311 -733q-19 -43 -19 -86q0 -30 33 -82h-367
l-141 506h-4l-92 -338q-19 -69 -19 -86q0 -30 33 -82z" />
    <glyph glyph-name="x" unicode="x" horiz-adv-x="1251" 
d="M510 0h-576q45 31 109 102l367 433l-277 366q-52 65 -108 103h507q-14 -11 -14 -39q0 -9 12 -33l99 -160h4l98 160q12 24 12 33q0 29 -12 39h547q-59 -40 -109 -103l-292 -366l315 -433q39 -56 108 -102h-557q21 24 21 49q0 16 -8 29l-127 198h-4l-127 -198
q-9 -15 -9 -29q0 -25 21 -49z" />
    <glyph glyph-name="y" unicode="y" 
d="M-31 1004h502q-19 -10 -30 -26.5t-11 -31.5q0 -53 16 -92l123 -295h4l123 295q17 41 17 92q0 15 -11 31.5t-30 26.5h502q-50 -44 -74 -103l-502 -1137q-2 -5 -10.5 -23.5t-12 -27.5t-7 -23t-3.5 -26q0 -41 43 -78h-512q46 46 82 123l199 430l-334 762q-24 59 -74 103z
" />
    <glyph glyph-name="z" unicode="z" 
d="M205 670v334h983l-498 -701h254q91 0 184 41v-344h-1075l488 700h-199q-75 0 -137 -30z" />
    <glyph glyph-name="braceleft" unicode="{" horiz-adv-x="681" 
d="M-35 432v195q60 0 97.5 33.5t37.5 103.5v424q0 68 23 121t61.5 85t84.5 48t96 16h260v-270h-74q-42 0 -66 -29t-24 -74v-348q0 -57 -19.5 -98t-53.5 -62.5t-68 -31.5t-74 -13v-6q40 -3 74 -12.5t68 -31t53.5 -62.5t19.5 -98v-330q0 -45 24 -74t66 -29h74v-270h-260
q-50 0 -96 16t-84.5 48t-61.5 85t-23 121v406q0 70 -37.5 103.5t-97.5 33.5z" />
    <glyph glyph-name="bar" unicode="|" horiz-adv-x="454" 
d="M109 1536h237v-2048h-237v2048z" />
    <glyph glyph-name="braceright" unicode="}" horiz-adv-x="681" 
d="M717 627v-195q-60 0 -97.5 -33.5t-37.5 -103.5v-406q0 -68 -23 -121t-61.5 -85t-84.5 -48t-96 -16h-260v270h74q42 0 66 29t24 74v330q0 57 19.5 98t53.5 62.5t68 31t74 12.5v6q-40 3 -74 13t-68 31.5t-53.5 62.5t-19.5 98v348q0 45 -24 74t-66 29h-74v270h260
q50 0 96 -16t84.5 -48t61.5 -85t23 -121v-424q0 -70 37.5 -103.5t97.5 -33.5z" />
    <glyph glyph-name="asciitilde" unicode="~" horiz-adv-x="1228" 
d="M1014 692l73 -196q-29 -41 -49 -65.5t-52.5 -54t-71 -43.5t-83.5 -14q-52 0 -99 17t-109 51q-128 72 -236 72q-61 0 -101.5 -41t-70.5 -107l-74 197q92 176 256 176q81 0 228 -66q12 -5 44 -19.5t48 -21t40.5 -15.5t42.5 -13t34 -4q29 0 55 11.5t49.5 36t38 44.5t37.5 55
z" />
    <glyph glyph-name="uni00A0" unicode="&#xa0;" horiz-adv-x="624" 
 />
    <glyph glyph-name="exclamdown" unicode="&#xa1;" horiz-adv-x="796" 
d="M397 1065q97 0 162.5 -66t65.5 -165t-65.5 -165.5t-162.5 -66.5t-162 66t-65 166q0 99 65 165t162 66zM213 500h371q-27 -61 -27 -82q0 -56 6 -111l80 -645q6 -41 41 -76h-571q35 35 41 76l79 645q7 65 7 111q0 21 -27 82z" />
    <glyph glyph-name="cent" unicode="&#xa2;" horiz-adv-x="1251" 
d="M905 1210v-413q-74 71 -157 71q-75 0 -128 -47.5t-53 -122.5q0 -65 54 -118t127 -54q81 0 157 72v-426q-20 10 -37 10q-14 0 -30 -8v-111q0 -40 26 -63h-260v182q-168 42 -284.5 186t-116.5 326t116.5 326t284.5 186v99q0 47 -18 77h252v-174q20 -4 32 -4q20 0 35 6z" />
    <glyph glyph-name="sterling" unicode="&#xa3;" horiz-adv-x="1251" 
d="M-2 557v348h133v62q0 109 28.5 202.5t85 166t148 114t209.5 41.5q34 0 88 -8q45 -10 64 -10q83 0 110 18v-457q-56 56 -143 56q-70 0 -106.5 -37.5t-36.5 -98.5v-49h81q51 0 95 27v-359h-181v-165q24 -7 41 -7q78 0 123.5 45t53.5 123h419q-27 -58 -43 -127
q-27 -112 -65.5 -190t-101 -137t-154 -87t-217.5 -28h-545q47 50 47 135v438h-68q-36 0 -65 -16z" />
    <glyph glyph-name="currency" unicode="&#xa4;" horiz-adv-x="1251" 
d="M92 324l119 118q-94 108 -94 287q0 87 24 165t70 122l-119 119l129 129l117 -117q46 40 126 65t163 25t159 -24.5t117 -61.5l119 119l139 -140l-119 -114q46 -44 70.5 -122t24.5 -165q0 -85 -25 -160t-70 -127l115 -118l-129 -129l-125 124q-39 -45 -114.5 -71.5
t-161.5 -26.5q-85 0 -164.5 25.5t-124.5 68.5l-121 -116zM627 1012q-112 0 -186 -82t-74 -201t74 -201t186 -82t186 82t74 201t-74 201t-186 82z" />
    <glyph glyph-name="yen" unicode="&#xa5;" horiz-adv-x="1251" 
d="M846 686v-160h182q44 0 98 13v-217h-280v-230q0 -42 37 -92h-516q36 49 36 92v230h-190q-44 0 -98 -13v217h288v160h-190q-49 0 -98 -12v217h209l-263 485q-27 53 -59 82h498q-11 -38 -11 -53q0 -28 15 -55l129 -248l121 248q12 27 12 55q0 18 -10 53h497
q-26 -29 -47 -69l-276 -498h98q48 0 98 12v-217h-280z" />
    <glyph glyph-name="brokenbar" unicode="&#xa6;" horiz-adv-x="454" 
d="M109 1382h237v-716h-237v716zM109 358h237v-716h-237v716z" />
    <glyph glyph-name="section" unicode="&#xa7;" horiz-adv-x="1251" 
d="M1092 1090h-316q8 21 8 55q0 64 -46.5 98.5t-112.5 34.5q-63 0 -98 -37.5t-35 -99.5q0 -42 29 -76t76 -56.5t107.5 -47t123 -46.5t123 -56.5t107.5 -74.5t76 -103t29 -140q0 -116 -48.5 -181t-162.5 -131q144 -119 144 -260q0 -84 -26 -150t-70 -109t-106 -71.5
t-130 -40.5t-146 -12q-79 0 -157.5 18.5t-147.5 55t-112 99t-43 141.5q0 36 -27 100h356q-22 -31 -22 -76q0 -57 47 -91t111 -34q165 0 165 140q0 38 -38.5 70.5t-100.5 58.5t-136.5 53.5t-149 64t-136.5 81t-100.5 112.5t-38.5 151q0 233 225 318q-72 40 -110.5 113.5
t-38.5 160.5q0 91 39 163.5t104 116t145.5 66.5t168.5 23q75 0 154 -23.5t145 -64.5t108.5 -103t42.5 -131q0 -41 21 -79zM485 731q-35 0 -76.5 -49t-41.5 -94q0 -41 30 -70.5t82 -56.5q50 -26 152 -70.5t127 -44.5q39 0 83 40.5t44 92.5q0 48 -36 81.5t-99 62.5
q-35 15 -99.5 47.5t-101 46.5t-64.5 14z" />
    <glyph glyph-name="dieresis" unicode="&#xa8;" horiz-adv-x="569" 
d="M346 1307q0 71 49.5 121.5t120.5 50.5t122.5 -51t51.5 -121q0 -71 -51.5 -121.5t-122.5 -50.5q-72 0 -121 50t-49 122zM-121 1307q0 71 49.5 121.5t120.5 50.5t122.5 -51t51.5 -121q0 -71 -51.5 -121.5t-122.5 -50.5q-72 0 -121 50t-49 122z" />
    <glyph glyph-name="copyright" unicode="&#xa9;" horiz-adv-x="1638" 
d="M819 -33q-155 0 -297 52t-252.5 147t-176.5 241t-66 322t66 322t176.5 241t252.5 147t297 52q154 0 296 -52t253 -147t177.5 -241.5t66.5 -321.5t-66.5 -321.5t-177.5 -241.5t-253 -147t-296 -52zM1358 729q0 125 -43 233t-116.5 182t-172 116.5t-207.5 42.5
q-111 0 -210 -42.5t-171.5 -117t-114.5 -182t-42 -232.5t42 -232.5t114.5 -182t171.5 -116.5t210 -42q109 0 207.5 42t172 116.5t116.5 182t43 232.5zM1022 618h184q-23 -155 -120.5 -238t-239.5 -83q-190 0 -304 123t-114 315q0 193 114 317t304 124q142 0 239.5 -82
t120.5 -232h-184q-13 65 -61 95t-115 30q-90 0 -139.5 -66.5t-49.5 -181.5q0 -112 50.5 -183t138.5 -71q66 0 114.5 33.5t61.5 99.5z" />
    <glyph glyph-name="ordfeminine" unicode="&#xaa;" horiz-adv-x="684" 
d="M446 1106v127q-29 39 -90 39q-36 0 -61 -32t-25 -73q0 -38 25 -69t61 -31q61 0 90 39zM676 1319v-369q0 -51 31 -82h-222v66h-4q-34 -86 -149 -86q-119 0 -205 96t-86 225q0 130 89.5 226t221.5 96q63 0 112.5 -19.5t104.5 -58.5q8 -5 24 -17t21 -15t17 -10t20 -9.5
t21.5 -5.5t29.5 -4q-26 -10 -26 -33z" />
    <glyph glyph-name="guillemotleft" unicode="&#xab;" 
d="M344 829h254l-244 -331l246 -322h-252l-246 326zM780 829h254l-243 -331l245 -322h-252l-245 326z" />
    <glyph glyph-name="logicalnot" unicode="&#xac;" horiz-adv-x="1228" 
d="M877 262v359h-762v237h999v-596h-237z" />
    <glyph glyph-name="uni00AD" unicode="&#xad;" horiz-adv-x="569" 
d="M66 315v334h276q87 0 166 35v-334h-328q-62 0 -114 -35z" />
    <glyph glyph-name="registered" unicode="&#xae;" horiz-adv-x="1638" 
d="M696 662v-345h-188v826h309q174 0 260 -55.5t86 -196.5q0 -111 -59 -161.5t-172 -55.5l211 -357h-189l-188 345h-70zM696 809h158q113 0 113 94q0 92 -113 92h-158v-186zM819 -33q-155 0 -297 52t-252.5 147t-176.5 241t-66 322t66 322t176.5 241t252.5 147t297 52
q154 0 296 -52t253 -147t177.5 -241.5t66.5 -321.5t-66.5 -321.5t-177.5 -241.5t-253 -147t-296 -52zM1358 729q0 125 -43 233t-116.5 182t-172 116.5t-207.5 42.5q-111 0 -210 -42.5t-171.5 -117t-114.5 -182t-42 -232.5t42 -232.5t114.5 -182t171.5 -116.5t210 -42
q109 0 207.5 42t172 116.5t116.5 182t43 232.5z" />
    <glyph glyph-name="macron" unicode="&#xaf;" horiz-adv-x="569" 
d="M672 1221h-772v184h772v-184z" />
    <glyph glyph-name="degree" unicode="&#xb0;" horiz-adv-x="819" 
d="M410 1004q76 0 131 58.5t55 135.5t-55 136t-131 59t-131.5 -59t-55.5 -136t55.5 -135.5t131.5 -58.5zM410 905q-123 0 -208 85t-85 208t85 208t208 85t207.5 -85t84.5 -208t-84.5 -208t-207.5 -85z" />
    <glyph glyph-name="plusminus" unicode="&#xb1;" horiz-adv-x="1228" 
d="M496 770v234h237v-234h381v-238h-381v-235h-237v235h-381v238h381zM115 0v238h999v-238h-999z" />
    <glyph glyph-name="twosuperior" unicode="&#xb2;" horiz-adv-x="749" 
d="M289 1116h-283q25 52 25 84q0 83 52.5 151t135 104t174.5 36q168 0 257 -99.5t89 -242.5q0 -71 -52.5 -150t-154.5 -174h109q59 0 94 21v-250h-735l430 487q37 42 37 80q0 76 -84 76q-42 0 -68 -26t-26 -60v-37z" />
    <glyph glyph-name="threesuperior" unicode="&#xb3;" horiz-adv-x="749" 
d="M98 1212v258h639l-196 -280q107 -20 170 -100t63 -183q0 -144 -106 -238t-252 -94q-149 0 -256 95.5t-107 220.5q0 40 -22 65h309q-10 -23 -10 -38q0 -37 24 -64t62 -27q37 0 61.5 27.5t24.5 63.5q0 24 -22 45.5t-48 21.5q-33 0 -39 -2l-182 121l106 129h-167
q-31 0 -52 -21z" />
    <glyph glyph-name="acute" unicode="&#xb4;" horiz-adv-x="569" 
d="M279 1458h426l-398 -303h-233z" />
    <glyph glyph-name="mu" unicode="&#xb5;" 
d="M463 -23v-391h-420q47 50 47 135v1147q0 86 -47 136h467q-47 -50 -47 -136v-456q0 -60 28 -84.5t82 -24.5q43 0 73 19t30 47v499q0 86 -47 136h467q-47 -50 -47 -136v-577q0 -55 45 -103v-4q-59 -14 -113.5 -42t-96 -57t-86 -56t-103 -44.5t-128.5 -17.5q-49 0 -104 10z
" />
    <glyph glyph-name="paragraph" unicode="&#xb6;" horiz-adv-x="1269" 
d="M463 -367v1110q-193 0 -304.5 94.5t-111.5 262.5t111.5 263t304.5 95h690v-1825h-246v1641h-198v-1641h-246z" />
    <glyph glyph-name="periodcentered" unicode="&#xb7;" horiz-adv-x="624" 
d="M313 727q93 0 159.5 -66t66.5 -159t-66.5 -159.5t-159.5 -66.5t-159 66t-66 160q0 93 66 159t159 66z" />
    <glyph glyph-name="cedilla" unicode="&#xb8;" horiz-adv-x="569" 
d="M2 -416l43 92q14 -4 42 -13.5t44.5 -15t41.5 -10t48 -4.5q40 0 73.5 19.5t33.5 58.5q0 35 -31 52.5t-68 17.5q-25 0 -69 -19l-54 50l115 188h119l-82 -131q42 10 76 10q75 0 134.5 -43t59.5 -115q0 -50 -25.5 -89.5t-66.5 -62t-87 -34.5t-93 -12q-117 0 -254 61z" />
    <glyph glyph-name="onesuperior" unicode="&#xb9;" horiz-adv-x="749" 
d="M326 1470h286q-30 -30 -30 -79v-713q0 -52 30 -82h-354q31 31 31 82v436h-4l-62 -88l-229 158q47 12 72 37z" />
    <glyph glyph-name="ordmasculine" unicode="&#xba;" horiz-adv-x="684" 
d="M338 1491q141 0 245.5 -100t104.5 -222t-104.5 -221.5t-245.5 -99.5q-139 0 -240.5 99.5t-101.5 221.5t101.5 222t240.5 100zM342 1272q-51 0 -80 -28.5t-29 -74.5q0 -45 29 -73.5t80 -28.5t80 28.5t29 73.5q0 46 -29 74.5t-80 28.5z" />
    <glyph glyph-name="guillemotright" unicode="&#xbb;" 
d="M541 829h254l241 -327l-245 -326h-252l245 322zM104 829h254l242 -327l-246 -326h-252l246 322z" />
    <glyph glyph-name="onequarter" unicode="&#xbc;" horiz-adv-x="1875" 
d="M1237 352h168v238l-4 4zM1774 373v-230h-101v-61q0 -51 31 -82h-330q31 31 31 82v61h-242l-164 211q34 15 56 43l352 477h297q-31 -31 -31 -79v-443h39q34 0 62 21zM1114 1491h332q-36 -22 -78 -100l-616 -1276q-27 -52 -27 -82q0 -29 16 -66h-321q58 66 76 99l616 1259
q33 60 33 86q0 38 -31 80zM346 1470h287q-31 -31 -31 -79v-713q0 -51 31 -82h-354q30 30 30 82v436h-4l-61 -88l-230 158q47 12 72 37z" />
    <glyph glyph-name="onehalf" unicode="&#xbd;" horiz-adv-x="1875" 
d="M1104 1491h332q-36 -22 -78 -100l-617 -1276q-26 -50 -26 -82q0 -29 16 -66h-321q55 63 75 99l617 1259q33 60 33 86q0 38 -31 80zM346 1470h287q-31 -31 -31 -79v-713q0 -51 31 -82h-354q30 30 30 82v436h-4l-61 -88l-230 158q47 12 72 37zM1374 520h-282q24 50 24 84
q0 83 53 151t135.5 104t174.5 36q168 0 257 -99.5t89 -242.5q0 -71 -52.5 -150t-154.5 -174h108q60 0 95 21v-250h-736l431 487q36 41 36 80q0 76 -84 76q-42 0 -68 -26t-26 -60v-37z" />
    <glyph glyph-name="threequarters" unicode="&#xbe;" horiz-adv-x="1875" 
d="M1237 352h168v238l-4 4zM1774 373v-230h-101v-61q0 -51 31 -82h-330q31 31 31 82v61h-242l-164 211q34 15 56 43l352 477h297q-31 -31 -31 -79v-443h39q34 0 62 21zM74 1212v258h639l-197 -280q107 -20 170.5 -100t63.5 -183q0 -144 -106 -238t-253 -94
q-149 0 -255.5 95.5t-106.5 220.5q0 39 -23 65h309q-10 -23 -10 -38q0 -37 24 -64t62 -27q37 0 61.5 27.5t24.5 63.5q0 24 -21.5 45.5t-47.5 21.5q-33 0 -39 -2l-183 121l107 129h-168q-30 0 -51 -21zM1114 1491h332q-36 -22 -78 -100l-616 -1276q-27 -52 -27 -82
q0 -29 16 -66h-321q58 66 76 99l616 1259q33 60 33 86q0 38 -31 80z" />
    <glyph glyph-name="questiondown" unicode="&#xbf;" horiz-adv-x="796" 
d="M698 516v-389q-41 41 -102 41q-53 0 -88 -34.5t-35 -90.5t34.5 -87.5t88.5 -31.5q42 0 79 22t56 56v-436q-9 6 -24 12q-16 4 -31 4q-11 0 -55 -14q-54 -14 -95 -14q-206 0 -334.5 132.5t-128.5 342.5t128.5 342.5t334.5 132.5q14 0 42 -6t42 -6q30 0 88 24zM492 1065
q97 0 162 -66t65 -165q0 -100 -65 -166t-162 -66t-162.5 66.5t-65.5 165.5t65.5 165t162.5 66z" />
    <glyph glyph-name="Agrave" unicode="&#xc0;" horiz-adv-x="1478" 
d="M420 1458h557l485 -1331q25 -68 84 -127h-590q15 34 15 78q0 36 -31 131h-401q-35 -56 -35 -133q0 -50 22 -66v-10h-594q50 48 101 188l6 15l405 1100q21 60 21 90q0 23 -11.5 37t-33.5 28zM639 545h197l-97 448h-8zM291 1855h426l205 -303h-234z" />
    <glyph glyph-name="Aacute" unicode="&#xc1;" horiz-adv-x="1478" 
d="M420 1458h557l485 -1331q25 -68 84 -127h-590q15 34 15 78q0 36 -31 131h-401q-35 -56 -35 -133q0 -50 22 -66v-10h-594q50 48 101 188l6 15l405 1100q21 60 21 90q0 23 -11.5 37t-33.5 28zM639 545h197l-97 448h-8zM705 1855h425l-397 -303h-233z" />
    <glyph glyph-name="Acircumflex" unicode="&#xc2;" horiz-adv-x="1478" 
d="M420 1458h557l485 -1331q25 -68 84 -127h-590q15 34 15 78q0 36 -31 131h-401q-35 -56 -35 -133q0 -50 22 -66v-10h-594q50 48 101 188l6 15l405 1100q21 60 21 90q0 23 -11.5 37t-33.5 28zM639 545h197l-97 448h-8zM293 1552l250 303h336l249 -303h-305l-112 154
l-115 -154h-303z" />
    <glyph glyph-name="Atilde" unicode="&#xc3;" horiz-adv-x="1478" 
d="M420 1458h557l485 -1331q25 -68 84 -127h-590q15 34 15 78q0 36 -31 131h-401q-35 -56 -35 -133q0 -50 22 -66v-10h-594q50 48 101 188l6 15l405 1100q21 60 21 90q0 23 -11.5 37t-33.5 28zM639 545h197l-97 448h-8zM948 1851h162q-14 -127 -79.5 -199.5t-188.5 -72.5
q-59 0 -158 39q-101 37 -129 37q-30 0 -54.5 -28.5t-29.5 -59.5h-162q7 70 36.5 133.5t86.5 109t129 45.5q65 0 168 -38q7 -3 27.5 -11.5t29 -12t23.5 -8.5t26 -7t21 -2q69 0 92 75z" />
    <glyph glyph-name="Adieresis" unicode="&#xc4;" horiz-adv-x="1478" 
d="M420 1458h557l485 -1331q25 -68 84 -127h-590q15 34 15 78q0 36 -31 131h-401q-35 -56 -35 -133q0 -50 22 -66v-10h-594q50 48 101 188l6 15l405 1100q21 60 21 90q0 23 -11.5 37t-33.5 28zM639 545h197l-97 448h-8zM772 1704q0 71 49.5 121.5t120.5 50.5t122.5 -51
t51.5 -121q0 -71 -51.5 -121.5t-122.5 -50.5q-72 0 -121 50t-49 122zM305 1704q0 71 49.5 121.5t120.5 50.5t122.5 -51t51.5 -121q0 -71 -51.5 -121.5t-122.5 -50.5q-72 0 -121 50t-49 122z" />
    <glyph glyph-name="Aring" unicode="&#xc5;" horiz-adv-x="1478" 
d="M420 1458h557l485 -1331q25 -68 84 -127h-590q15 34 15 78q0 36 -31 131h-401q-35 -56 -35 -133q0 -50 22 -66v-10h-594q50 48 101 188l6 15l405 1100q21 60 21 90q0 23 -11.5 37t-33.5 28zM639 545h197l-97 448h-8zM610 1784q0 -43 29 -73t70 -30q43 0 72.5 30t29.5 73
t-29.5 72.5t-72.5 29.5q-41 0 -70 -29.5t-29 -72.5zM711 2013q96 0 163.5 -66.5t67.5 -162.5t-67.5 -163t-163.5 -67t-164 67t-68 163t68 162.5t164 66.5z" />
    <glyph glyph-name="AE" unicode="&#xc6;" horiz-adv-x="2048" 
d="M827 578h209v358h-4zM1479 903h161q93 0 160 29v-389q-65 28 -160 28h-161v-170h252q136 0 221 39v-440h-963q47 50 47 135v144h-377l-98 -164q-20 -35 -20 -60q0 -29 37 -55h-680q46 39 112 135l748 1112q3 4 13.5 20.5t14.5 23.5t8.5 19.5t4.5 22.5q0 64 -35 125h1188
v-440q-85 39 -221 39h-252v-154z" />
    <glyph glyph-name="Ccedilla" unicode="&#xc7;" 
d="M1065 557v-590q-30 10 -59 13q-20 4 -62 4q-18 0 -70 -9q-46 -8 -77 -8h-15l-61 -98q42 10 76 10q75 0 134.5 -43t59.5 -115q0 -50 -25.5 -89.5t-66.5 -62t-87 -34.5t-93 -12q-117 0 -254 61l43 92q14 -4 42 -13.5t44.5 -15t41.5 -10t48 -4.5q40 0 73.5 19.5t33.5 58.5
q0 35 -31 52.5t-68 17.5q-25 0 -69 -19l-54 50l103 168q-174 28 -315 135.5t-220.5 269t-79.5 344.5q0 152 57 292.5t155 243.5t236 164.5t292 61.5q31 0 77 -8t70 -8q72 0 121 16v-578q-52 55 -119.5 85.5t-138.5 29.5q-125 0 -206 -89t-81 -214q0 -124 81 -209.5
t206 -85.5q72 0 139.5 33t118.5 94z" />
    <glyph glyph-name="Egrave" unicode="&#xc8;" horiz-adv-x="1024" 
d="M948 440v-440h-905q47 50 47 135v1188q0 85 -47 135h905v-440q-85 39 -221 39h-195v-154h105q93 0 160 29v-389q-65 28 -160 28h-105v-170h195q136 0 221 39zM74 1855h426l205 -303h-234z" />
    <glyph glyph-name="Eacute" unicode="&#xc9;" horiz-adv-x="1024" 
d="M948 440v-440h-905q47 50 47 135v1188q0 85 -47 135h905v-440q-85 39 -221 39h-195v-154h105q93 0 160 29v-389q-65 28 -160 28h-105v-170h195q136 0 221 39zM487 1855h426l-397 -303h-233z" />
    <glyph glyph-name="Ecircumflex" unicode="&#xca;" horiz-adv-x="1024" 
d="M948 440v-440h-905q47 50 47 135v1188q0 85 -47 135h905v-440q-85 39 -221 39h-195v-154h105q93 0 160 29v-389q-65 28 -160 28h-105v-170h195q136 0 221 39zM76 1552l250 303h336l249 -303h-305l-112 154l-115 -154h-303z" />
    <glyph glyph-name="Edieresis" unicode="&#xcb;" horiz-adv-x="1024" 
d="M948 440v-440h-905q47 50 47 135v1188q0 85 -47 135h905v-440q-85 39 -221 39h-195v-154h105q93 0 160 29v-389q-65 28 -160 28h-105v-170h195q136 0 221 39zM555 1704q0 71 49.5 121.5t120.5 50.5t122.5 -51t51.5 -121q0 -71 -51.5 -121.5t-122.5 -50.5q-72 0 -121 50
t-49 122zM88 1704q0 71 49.5 121.5t120.5 50.5t122.5 -51t51.5 -121q0 -71 -51.5 -121.5t-122.5 -50.5q-72 0 -121 50t-49 122z" />
    <glyph glyph-name="Igrave" unicode="&#xcc;" horiz-adv-x="681" 
d="M63 1458h558q-48 -51 -48 -135v-1188q0 -84 48 -135h-558q48 51 48 135v1188q0 84 -48 135zM-106 1855h425l205 -303h-233z" />
    <glyph glyph-name="Iacute" unicode="&#xcd;" horiz-adv-x="681" 
d="M63 1458h558q-48 -51 -48 -135v-1188q0 -84 48 -135h-558q48 51 48 135v1188q0 84 -48 135zM307 1855h426l-397 -303h-234z" />
    <glyph glyph-name="Icircumflex" unicode="&#xce;" horiz-adv-x="681" 
d="M63 1458h558q-48 -51 -48 -135v-1188q0 -84 48 -135h-558q48 51 48 135v1188q0 84 -48 135zM-104 1552l249 303h336l250 -303h-305l-113 154l-114 -154h-303z" />
    <glyph glyph-name="Idieresis" unicode="&#xcf;" horiz-adv-x="681" 
d="M63 1458h558q-48 -51 -48 -135v-1188q0 -84 48 -135h-558q48 51 48 135v1188q0 84 -48 135zM375 1704q0 71 49.5 121.5t120.5 50.5t122.5 -51t51.5 -121q0 -71 -51.5 -121.5t-122.5 -50.5q-72 0 -121 50t-49 122zM-92 1704q0 71 49.5 121.5t120.5 50.5t122.5 -51
t51.5 -121q0 -71 -51.5 -121.5t-122.5 -50.5q-72 0 -121 50t-49 122z" />
    <glyph glyph-name="Eth" unicode="&#xd0;" horiz-adv-x="1366" 
d="M55 543v360h68v588q60 -47 135 -47q34 0 146.5 23.5t205.5 23.5q140 0 269.5 -64.5t220.5 -168.5t145.5 -238.5t54.5 -271.5q0 -199 -87.5 -369.5t-249 -274.5t-361.5 -104h-526q47 50 47 135v416q-22 0 -68 -8zM565 1049v-146h62q21 0 61 8v-368q-40 8 -61 8h-62v-109
q128 0 210.5 83.5t82.5 213.5q0 144 -81.5 227t-211.5 83z" />
    <glyph glyph-name="Ntilde" unicode="&#xd1;" horiz-adv-x="1478" 
d="M51 1458h469l414 -727l4 4v588q0 85 -47 135h536q-47 -50 -47 -135v-1188q0 -85 47 -135h-469l-413 752l-4 -4v-613q0 -85 47 -135h-537q47 50 47 135v1188q0 85 -47 135zM930 1851h162q-14 -127 -80 -199.5t-189 -72.5q-58 0 -157 39q-101 37 -129 37q-30 0 -54.5 -28.5
t-29.5 -59.5h-162q7 70 36.5 133.5t86.5 109t129 45.5q65 0 168 -38q7 -3 27.5 -11.5t29 -12t23.5 -8.5t26 -7t21 -2q69 0 92 75z" />
    <glyph glyph-name="Ograve" unicode="&#xd2;" horiz-adv-x="1593" 
d="M797 1491q154 0 292 -61.5t235.5 -164.5t154.5 -243t57 -293t-57 -293t-154.5 -243t-235.5 -164.5t-292 -61.5t-292 61.5t-236 164.5t-155 243.5t-57 292.5t57 292.5t155 243.5t236 164.5t292 61.5zM520 729q0 -130 80.5 -214.5t196.5 -84.5t196 84.5t80 214.5t-80 214.5
t-196 84.5t-196.5 -84.5t-80.5 -214.5zM358 1855h426l205 -303h-233z" />
    <glyph glyph-name="Oacute" unicode="&#xd3;" horiz-adv-x="1593" 
d="M797 1491q154 0 292 -61.5t235.5 -164.5t154.5 -243t57 -293t-57 -293t-154.5 -243t-235.5 -164.5t-292 -61.5t-292 61.5t-236 164.5t-155 243.5t-57 292.5t57 292.5t155 243.5t236 164.5t292 61.5zM520 729q0 -130 80.5 -214.5t196.5 -84.5t196 84.5t80 214.5t-80 214.5
t-196 84.5t-196.5 -84.5t-80.5 -214.5zM772 1855h426l-397 -303h-234z" />
    <glyph glyph-name="Ocircumflex" unicode="&#xd4;" horiz-adv-x="1593" 
d="M797 1491q154 0 292 -61.5t235.5 -164.5t154.5 -243t57 -293t-57 -293t-154.5 -243t-235.5 -164.5t-292 -61.5t-292 61.5t-236 164.5t-155 243.5t-57 292.5t57 292.5t155 243.5t236 164.5t292 61.5zM520 729q0 -130 80.5 -214.5t196.5 -84.5t196 84.5t80 214.5t-80 214.5
t-196 84.5t-196.5 -84.5t-80.5 -214.5zM360 1552l250 303h336l250 -303h-305l-113 154l-114 -154h-304z" />
    <glyph glyph-name="Otilde" unicode="&#xd5;" horiz-adv-x="1593" 
d="M797 1491q154 0 292 -61.5t235.5 -164.5t154.5 -243t57 -293t-57 -293t-154.5 -243t-235.5 -164.5t-292 -61.5t-292 61.5t-236 164.5t-155 243.5t-57 292.5t57 292.5t155 243.5t236 164.5t292 61.5zM520 729q0 -130 80.5 -214.5t196.5 -84.5t196 84.5t80 214.5t-80 214.5
t-196 84.5t-196.5 -84.5t-80.5 -214.5zM1016 1851h162q-14 -127 -80 -199.5t-189 -72.5q-58 0 -157 39q-101 37 -129 37q-30 0 -54.5 -28.5t-29.5 -59.5h-162q7 70 36.5 133.5t86.5 109t129 45.5q65 0 168 -38q7 -3 27.5 -11.5t29 -12t23.5 -8.5t26 -7t21 -2q69 0 92 75z
" />
    <glyph glyph-name="Odieresis" unicode="&#xd6;" horiz-adv-x="1593" 
d="M797 1491q154 0 292 -61.5t235.5 -164.5t154.5 -243t57 -293t-57 -293t-154.5 -243t-235.5 -164.5t-292 -61.5t-292 61.5t-236 164.5t-155 243.5t-57 292.5t57 292.5t155 243.5t236 164.5t292 61.5zM520 729q0 -130 80.5 -214.5t196.5 -84.5t196 84.5t80 214.5t-80 214.5
t-196 84.5t-196.5 -84.5t-80.5 -214.5zM840 1704q0 71 49.5 121.5t120.5 50.5t122.5 -51t51.5 -121q0 -71 -51.5 -121.5t-122.5 -50.5q-72 0 -121 50t-49 122zM373 1704q0 71 49.5 121.5t120.5 50.5t122.5 -51t51.5 -121q0 -71 -51.5 -121.5t-122.5 -50.5q-72 0 -121 50
t-49 122z" />
    <glyph glyph-name="multiply" unicode="&#xd7;" horiz-adv-x="1228" 
d="M446 500l-331 334l168 170l331 -336l332 336l168 -170l-332 -334l332 -332l-168 -168l-332 334l-331 -334l-168 168z" />
    <glyph glyph-name="Oslash" unicode="&#xd8;" horiz-adv-x="1593" 
d="M1051 850l-322 -399q29 -21 68 -21q116 0 196 84.5t80 214.5q0 69 -22 121zM543 612l317 396q-20 20 -63 20q-116 0 -196.5 -84.5t-80.5 -214.5q0 -59 23 -117zM1249 1491h316l-211 -262q87 -101 134.5 -230t47.5 -270q0 -153 -57 -293t-154.5 -243t-235.5 -164.5
t-292 -61.5q-204 0 -373 105l-84 -105h-315l213 266q-87 101 -134 228.5t-47 267.5q0 152 57 292.5t155 243.5t236 164.5t292 61.5q198 0 370 -102z" />
    <glyph glyph-name="Ugrave" unicode="&#xd9;" horiz-adv-x="1366" 
d="M90 553v770q0 85 -47 135h557q-47 -50 -47 -135v-739q0 -90 28.5 -132t102.5 -42t100.5 41t26.5 133v739q0 85 -47 135h557q-47 -50 -47 -135v-770q0 -119 -49 -228.5t-130.5 -187.5t-191.5 -124t-227 -46q-156 0 -291 78t-215 213t-80 295zM217 1855h426l205 -303h-234z
" />
    <glyph glyph-name="Uacute" unicode="&#xda;" horiz-adv-x="1366" 
d="M90 553v770q0 85 -47 135h557q-47 -50 -47 -135v-739q0 -90 28.5 -132t102.5 -42t100.5 41t26.5 133v739q0 85 -47 135h557q-47 -50 -47 -135v-770q0 -119 -49 -228.5t-130.5 -187.5t-191.5 -124t-227 -46q-156 0 -291 78t-215 213t-80 295zM631 1855h426l-398 -303h-233
z" />
    <glyph glyph-name="Ucircumflex" unicode="&#xdb;" horiz-adv-x="1366" 
d="M90 553v770q0 85 -47 135h557q-47 -50 -47 -135v-739q0 -90 28.5 -132t102.5 -42t100.5 41t26.5 133v739q0 85 -47 135h557q-47 -50 -47 -135v-770q0 -119 -49 -228.5t-130.5 -187.5t-191.5 -124t-227 -46q-156 0 -291 78t-215 213t-80 295zM219 1552l250 303h336
l250 -303h-305l-113 154l-115 -154h-303z" />
    <glyph glyph-name="Udieresis" unicode="&#xdc;" horiz-adv-x="1366" 
d="M90 553v770q0 85 -47 135h557q-47 -50 -47 -135v-739q0 -90 28.5 -132t102.5 -42t100.5 41t26.5 133v739q0 85 -47 135h557q-47 -50 -47 -135v-770q0 -119 -49 -228.5t-130.5 -187.5t-191.5 -124t-227 -46q-156 0 -291 78t-215 213t-80 295zM698 1704q0 71 49.5 121.5
t120.5 50.5t122.5 -51t51.5 -121q0 -71 -51.5 -121.5t-122.5 -50.5q-72 0 -121 50t-49 122zM231 1704q0 71 49.5 121.5t120.5 50.5t122.5 -51t51.5 -121q0 -71 -51.5 -121.5t-122.5 -50.5q-72 0 -121 50t-49 122z" />
    <glyph glyph-name="Yacute" unicode="&#xdd;" horiz-adv-x="1366" 
d="M954 0h-546q43 46 43 92v582l-437 702q-36 56 -69 82h590q-15 -26 -15 -53q0 -35 72 -148l98 -155l98 155q72 113 72 148q0 29 -14 53h577q-19 -19 -55 -69l-455 -715v-582q0 -44 41 -92zM678 1855h426l-397 -303h-234z" />
    <glyph glyph-name="Thorn" unicode="&#xde;" horiz-adv-x="1251" 
d="M573 889v-316h54q73 0 119.5 41t46.5 117t-46.5 117t-119.5 41h-54zM111 135v1188q0 84 -48 135h558q-48 -51 -48 -131v-20h56q276 0 441 -158t165 -408q0 -249 -165 -406t-441 -157h-56v-43q0 -84 48 -135h-558q48 51 48 135z" />
    <glyph glyph-name="germandbls" unicode="&#xdf;" horiz-adv-x="1251" 
d="M485 0h-419q47 50 47 135v864q0 222 133 357t364 135q126 0 239.5 -59.5t185 -167t71.5 -234.5q0 -39 -15.5 -89.5t-39.5 -78.5q73 -57 105 -136.5t32 -201.5q0 -148 -62 -274.5t-179.5 -204.5t-266.5 -78q-64 0 -107 -16v381q99 0 170.5 74t71.5 176q0 96 -66 156
t-165 73q170 38 170 170q0 67 -33.5 106t-99.5 39q-57 0 -96.5 -37.5t-39.5 -87.5v-1001z" />
    <glyph glyph-name="agrave" unicode="&#xe0;" 
d="M688 395v213q-49 64 -139 64q-57 0 -96 -52t-39 -120q0 -65 39 -116.5t96 -51.5q91 0 139 63zM1040 752v-617q0 -85 47 -135h-339v74h-5q-63 -107 -202 -107q-101 0 -191 43.5t-153 116.5t-99.5 171t-36.5 204q0 142 61.5 264t172.5 196t246 74q97 0 174 -32t162 -97
q6 -5 33 -26t38.5 -29t34 -21.5t41 -18.5t37.5 -5h20v-4q-41 -13 -41 -51zM160 1458h426l205 -303h-234z" />
    <glyph glyph-name="aacute" unicode="&#xe1;" 
d="M688 395v213q-49 64 -139 64q-57 0 -96 -52t-39 -120q0 -65 39 -116.5t96 -51.5q91 0 139 63zM1040 752v-617q0 -85 47 -135h-339v74h-5q-63 -107 -202 -107q-101 0 -191 43.5t-153 116.5t-99.5 171t-36.5 204q0 142 61.5 264t172.5 196t246 74q97 0 174 -32t162 -97
q6 -5 33 -26t38.5 -29t34 -21.5t41 -18.5t37.5 -5h20v-4q-41 -13 -41 -51zM573 1458h426l-397 -303h-233z" />
    <glyph glyph-name="acircumflex" unicode="&#xe2;" 
d="M688 395v213q-49 64 -139 64q-57 0 -96 -52t-39 -120q0 -65 39 -116.5t96 -51.5q91 0 139 63zM1040 752v-617q0 -85 47 -135h-339v74h-5q-63 -107 -202 -107q-101 0 -191 43.5t-153 116.5t-99.5 171t-36.5 204q0 142 61.5 264t172.5 196t246 74q97 0 174 -32t162 -97
q6 -5 33 -26t38.5 -29t34 -21.5t41 -18.5t37.5 -5h20v-4q-41 -13 -41 -51zM162 1155l250 303h336l249 -303h-305l-112 154l-115 -154h-303z" />
    <glyph glyph-name="atilde" unicode="&#xe3;" 
d="M688 395v213q-49 64 -139 64q-57 0 -96 -52t-39 -120q0 -65 39 -116.5t96 -51.5q91 0 139 63zM1040 752v-617q0 -85 47 -135h-339v74h-5q-63 -107 -202 -107q-101 0 -191 43.5t-153 116.5t-99.5 171t-36.5 204q0 142 61.5 264t172.5 196t246 74q97 0 174 -32t162 -97
q6 -5 33 -26t38.5 -29t34 -21.5t41 -18.5t37.5 -5h20v-4q-41 -13 -41 -51zM817 1454h162q-14 -127 -79.5 -199.5t-188.5 -72.5q-59 0 -158 39q-98 36 -129 36q-30 0 -54.5 -28.5t-29.5 -59.5h-162q7 70 36.5 134t86.5 109.5t129 45.5q62 0 168 -39q7 -3 27.5 -11.5t29 -12
t23.5 -8.5t26 -7t21 -2q68 0 92 76z" />
    <glyph glyph-name="adieresis" unicode="&#xe4;" 
d="M688 395v213q-49 64 -139 64q-57 0 -96 -52t-39 -120q0 -65 39 -116.5t96 -51.5q91 0 139 63zM1040 752v-617q0 -85 47 -135h-339v74h-5q-63 -107 -202 -107q-101 0 -191 43.5t-153 116.5t-99.5 171t-36.5 204q0 142 61.5 264t172.5 196t246 74q97 0 174 -32t162 -97
q6 -5 33 -26t38.5 -29t34 -21.5t41 -18.5t37.5 -5h20v-4q-41 -13 -41 -51zM641 1307q0 71 49.5 121.5t120.5 50.5t122.5 -51t51.5 -121q0 -71 -51.5 -121.5t-122.5 -50.5q-72 0 -121 50t-49 122zM174 1307q0 71 49.5 121.5t120.5 50.5t122.5 -51t51.5 -121
q0 -71 -51.5 -121.5t-122.5 -50.5q-72 0 -121 50t-49 122z" />
    <glyph glyph-name="aring" unicode="&#xe5;" 
d="M688 395v213q-49 64 -139 64q-57 0 -96 -52t-39 -120q0 -65 39 -116.5t96 -51.5q91 0 139 63zM1040 752v-617q0 -85 47 -135h-339v74h-5q-63 -107 -202 -107q-101 0 -191 43.5t-153 116.5t-99.5 171t-36.5 204q0 142 61.5 264t172.5 196t246 74q97 0 174 -32t162 -97
q6 -5 33 -26t38.5 -29t34 -21.5t41 -18.5t37.5 -5h20v-4q-41 -13 -41 -51zM479 1386q0 -43 29 -72.5t70 -29.5q43 0 72.5 29.5t29.5 72.5t-29.5 73t-72.5 30q-41 0 -70 -30t-29 -73zM580 1616q96 0 163.5 -67t67.5 -163t-67.5 -162.5t-163.5 -66.5t-164 66.5t-68 162.5
t68 163t164 67z" />
    <glyph glyph-name="ae" unicode="&#xe6;" horiz-adv-x="1820" 
d="M1065 580h291q-8 61 -47 101t-99 40q-59 0 -98 -40t-47 -101zM987 0h-223v51q-41 -43 -102.5 -63.5t-122.5 -20.5q-101 0 -190.5 43.5t-151.5 117t-98 171t-36 203.5q0 142 60.5 264t171 196t244.5 74q221 0 354 -100q80 54 151 77t164 23q120 0 219.5 -47.5t164 -127.5
t99.5 -183t35 -217q0 -65 29 -90h-668q18 -54 76.5 -77.5t126.5 -23.5q113 0 195 58v-346q-11 6 -23 8q-15 6 -35 6q-21 0 -75 -14q-78 -15 -113 -15q-63 0 -134.5 23.5t-117.5 60.5v-51zM707 395v213q-49 64 -140 64q-57 0 -96 -52t-39 -120q0 -65 39 -116.5t96 -51.5
q92 0 140 63z" />
    <glyph glyph-name="ccedilla" unicode="&#xe7;" horiz-adv-x="796" 
d="M735 391v-424q-21 13 -59 13q-9 0 -47 -6.5t-54 -6.5q-22 0 -34 2l-62 -100q42 10 76 10q75 0 135 -43t60 -115q0 -65 -44.5 -112t-104.5 -66.5t-124 -19.5q-117 0 -254 61l43 92q14 -4 42 -13.5t44.5 -15t41.5 -10t48 -4.5q40 0 73.5 19.5t33.5 58.5q0 35 -30.5 52.5
t-67.5 17.5q-26 0 -70 -19l-53 50l106 178q-166 49 -275.5 197t-109.5 315q0 132 69 254.5t191.5 201t265.5 78.5q32 0 56 -6q5 -1 23.5 -3.5t25.5 -2.5q37 0 55 12v-424q-54 60 -160 60q-66 0 -113.5 -50.5t-47.5 -119.5t47.5 -119.5t113.5 -50.5q107 0 160 59z" />
    <glyph glyph-name="egrave" unicode="&#xe8;" 
d="M1094 379h-664q29 -49 81.5 -79t109.5 -30q114 0 208 58v-344q-15 7 -28 10q-10 2 -31 2q-28 0 -86 -14q-78 -15 -115 -15q-142 0 -263.5 79t-189 201.5t-67.5 254.5t67.5 254.5t189 201t263.5 78.5q100 0 183.5 -29t142 -79.5t98.5 -120t59 -149t19 -166.5
q0 -76 23 -113zM414 588h291q-8 55 -47.5 94t-98.5 39t-98 -38.5t-47 -94.5zM131 1458h426l205 -303h-234z" />
    <glyph glyph-name="eacute" unicode="&#xe9;" 
d="M1094 379h-664q29 -49 81.5 -79t109.5 -30q114 0 208 58v-344q-15 7 -28 10q-10 2 -31 2q-28 0 -86 -14q-78 -15 -115 -15q-142 0 -263.5 79t-189 201.5t-67.5 254.5t67.5 254.5t189 201t263.5 78.5q100 0 183.5 -29t142 -79.5t98.5 -120t59 -149t19 -166.5
q0 -76 23 -113zM414 588h291q-8 55 -47.5 94t-98.5 39t-98 -38.5t-47 -94.5zM545 1458h426l-398 -303h-233z" />
    <glyph glyph-name="ecircumflex" unicode="&#xea;" 
d="M1094 379h-664q29 -49 81.5 -79t109.5 -30q114 0 208 58v-344q-15 7 -28 10q-10 2 -31 2q-28 0 -86 -14q-78 -15 -115 -15q-142 0 -263.5 79t-189 201.5t-67.5 254.5t67.5 254.5t189 201t263.5 78.5q100 0 183.5 -29t142 -79.5t98.5 -120t59 -149t19 -166.5
q0 -76 23 -113zM414 588h291q-8 55 -47.5 94t-98.5 39t-98 -38.5t-47 -94.5zM133 1155l250 303h336l250 -303h-305l-113 154l-115 -154h-303z" />
    <glyph glyph-name="edieresis" unicode="&#xeb;" 
d="M1094 379h-664q29 -49 81.5 -79t109.5 -30q114 0 208 58v-344q-15 7 -28 10q-10 2 -31 2q-28 0 -86 -14q-78 -15 -115 -15q-142 0 -263.5 79t-189 201.5t-67.5 254.5t67.5 254.5t189 201t263.5 78.5q100 0 183.5 -29t142 -79.5t98.5 -120t59 -149t19 -166.5
q0 -76 23 -113zM414 588h291q-8 55 -47.5 94t-98.5 39t-98 -38.5t-47 -94.5zM612 1307q0 71 49.5 121.5t120.5 50.5t122.5 -51t51.5 -121q0 -71 -51.5 -121.5t-122.5 -50.5q-72 0 -121 50t-49 122zM145 1307q0 71 49.5 121.5t120.5 50.5t122.5 -51t51.5 -121
q0 -71 -51.5 -121.5t-122.5 -50.5q-72 0 -121 50t-49 122z" />
    <glyph glyph-name="igrave" unicode="&#xec;" horiz-adv-x="569" 
d="M51 1004h420v-869q0 -85 47 -135h-467q47 50 47 135v733q0 86 -47 136zM-135 1458h426l205 -303h-234z" />
    <glyph glyph-name="iacute" unicode="&#xed;" horiz-adv-x="569" 
d="M51 1004h420v-869q0 -85 47 -135h-467q47 50 47 135v733q0 86 -47 136zM279 1458h426l-398 -303h-233z" />
    <glyph glyph-name="icircumflex" unicode="&#xee;" horiz-adv-x="569" 
d="M51 1004h420v-869q0 -85 47 -135h-467q47 50 47 135v733q0 86 -47 136zM-133 1155l250 303h336l249 -303h-305l-112 154l-115 -154h-303z" />
    <glyph glyph-name="idieresis" unicode="&#xef;" horiz-adv-x="569" 
d="M51 1004h420v-869q0 -85 47 -135h-467q47 50 47 135v733q0 86 -47 136zM346 1307q0 71 49.5 121.5t120.5 50.5t122.5 -51t51.5 -121q0 -71 -51.5 -121.5t-122.5 -50.5q-72 0 -121 50t-49 122zM-121 1307q0 71 49.5 121.5t120.5 50.5t122.5 -51t51.5 -121
q0 -71 -51.5 -121.5t-122.5 -50.5q-72 0 -121 50t-49 122z" />
    <glyph glyph-name="eth" unicode="&#xf0;" 
d="M569 672q-78 0 -123 -47t-45 -123t45 -123t123 -47t123 47t45 123t-45 123t-123 47zM926 1278l-172 -59q76 -80 132.5 -152.5t108.5 -158.5t79.5 -178.5t27.5 -186.5q0 -122 -40.5 -229t-110.5 -183t-169.5 -120t-212.5 -44q-150 0 -273 73.5t-191 195.5t-68 266
q0 140 65 259t182.5 193t262.5 80q-13 15 -38 46t-36 44l-194 -67l-138 180l181 61q-53 61 -113 115l307 45l70 -69l202 69z" />
    <glyph glyph-name="ntilde" unicode="&#xf1;" 
d="M1096 0h-467q47 50 47 135v457q0 60 -28 84t-83 24q-43 0 -72.5 -18.5t-29.5 -46.5v-500q0 -85 47 -135h-467q47 50 47 135v578q0 58 -45 106q59 14 113.5 42t95.5 57t85.5 56t103 44.5t128.5 17.5q205 0 341.5 -119t136.5 -294v-488q0 -85 47 -135zM788 1454h162
q-14 -127 -79.5 -199.5t-188.5 -72.5q-59 0 -158 39q-98 36 -129 36q-30 0 -54.5 -28.5t-29.5 -59.5h-161q7 71 36.5 134.5t86 109t128.5 45.5q62 0 168 -39q7 -3 27.5 -11.5t29 -12t23.5 -8.5t26 -7t21 -2q68 0 92 76z" />
    <glyph glyph-name="ograve" unicode="&#xf2;" 
d="M37 502q0 107 40.5 205t110 170.5t169 115.5t212.5 43q150 0 273 -73t191.5 -195.5t68.5 -265.5q0 -144 -68.5 -266t-191.5 -195.5t-273 -73.5t-273 73.5t-191 195.5t-68 266zM569 672q-78 0 -123 -47t-45 -123t45 -123t123 -47t123 47t45 123t-45 123t-123 47zM150 1458
h425l205 -303h-233z" />
    <glyph glyph-name="oacute" unicode="&#xf3;" 
d="M37 502q0 107 40.5 205t110 170.5t169 115.5t212.5 43q150 0 273 -73t191.5 -195.5t68.5 -265.5q0 -144 -68.5 -266t-191.5 -195.5t-273 -73.5t-273 73.5t-191 195.5t-68 266zM569 672q-78 0 -123 -47t-45 -123t45 -123t123 -47t123 47t45 123t-45 123t-123 47zM563 1458
h426l-397 -303h-234z" />
    <glyph glyph-name="ocircumflex" unicode="&#xf4;" 
d="M37 502q0 107 40.5 205t110 170.5t169 115.5t212.5 43q150 0 273 -73t191.5 -195.5t68.5 -265.5q0 -144 -68.5 -266t-191.5 -195.5t-273 -73.5t-273 73.5t-191 195.5t-68 266zM569 672q-78 0 -123 -47t-45 -123t45 -123t123 -47t123 47t45 123t-45 123t-123 47zM152 1155
l249 303h336l250 -303h-305l-113 154l-114 -154h-303z" />
    <glyph glyph-name="otilde" unicode="&#xf5;" 
d="M37 502q0 107 40.5 205t110 170.5t169 115.5t212.5 43q150 0 273 -73t191.5 -195.5t68.5 -265.5q0 -144 -68.5 -266t-191.5 -195.5t-273 -73.5t-273 73.5t-191 195.5t-68 266zM569 672q-78 0 -123 -47t-45 -123t45 -123t123 -47t123 47t45 123t-45 123t-123 47zM807 1454
h162q-14 -127 -80 -199.5t-189 -72.5q-58 0 -157 39q-98 36 -129 36q-30 0 -54.5 -28.5t-29.5 -59.5h-162q7 70 36.5 134t86.5 109.5t129 45.5q62 0 168 -39q7 -3 27.5 -11.5t29 -12t23.5 -8.5t26 -7t21 -2q68 0 92 76z" />
    <glyph glyph-name="odieresis" unicode="&#xf6;" 
d="M37 502q0 107 40.5 205t110 170.5t169 115.5t212.5 43q150 0 273 -73t191.5 -195.5t68.5 -265.5q0 -144 -68.5 -266t-191.5 -195.5t-273 -73.5t-273 73.5t-191 195.5t-68 266zM569 672q-78 0 -123 -47t-45 -123t45 -123t123 -47t123 47t45 123t-45 123t-123 47zM631 1307
q0 71 49.5 121.5t120.5 50.5t122.5 -51t51.5 -121q0 -71 -51.5 -121.5t-122.5 -50.5q-72 0 -121 50t-49 122zM164 1307q0 71 49.5 121.5t120.5 50.5t122.5 -51t51.5 -121q0 -71 -51.5 -121.5t-122.5 -50.5q-72 0 -121 50t-49 122z" />
    <glyph glyph-name="divide" unicode="&#xf7;" horiz-adv-x="1228" 
d="M1114 383h-999v238h999v-238zM614 1100q76 0 132.5 -54t56.5 -135t-56.5 -134.5t-132.5 -53.5t-132 53.5t-56 134.5t56 135t132 54zM614 281q76 0 132.5 -54t56.5 -135t-56.5 -134.5t-132.5 -53.5t-132 53.5t-56 134.5t56 135t132 54z" />
    <glyph glyph-name="oslash" unicode="&#xf8;" 
d="M-4 -82l184 232q-68 76 -105.5 167.5t-37.5 184.5q0 132 69.5 254.5t192.5 201t266 78.5q125 0 234 -61l69 84h277l-170 -225q127 -149 127 -332q0 -98 -43 -195t-114.5 -172t-172 -121.5t-207.5 -46.5q-115 0 -207 47l-82 -96h-280zM569 672q-78 0 -123 -47t-45 -123
t45 -123t123 -47t123 47t45 123t-45 123t-123 47z" />
    <glyph glyph-name="ugrave" unicode="&#xf9;" 
d="M43 1004h467q-47 -50 -47 -136v-456q0 -60 28 -84.5t82 -24.5q43 0 73 19t30 47v499q0 86 -47 136h467q-47 -50 -47 -136v-577q0 -26 12 -55.5t33 -47.5v-4q-59 -14 -113.5 -42t-96 -57t-86 -56t-103 -44.5t-128.5 -17.5q-205 0 -341 119.5t-136 294.5v487q0 86 -47 136z
M131 1458h426l205 -303h-234z" />
    <glyph glyph-name="uacute" unicode="&#xfa;" 
d="M43 1004h467q-47 -50 -47 -136v-456q0 -60 28 -84.5t82 -24.5q43 0 73 19t30 47v499q0 86 -47 136h467q-47 -50 -47 -136v-577q0 -26 12 -55.5t33 -47.5v-4q-59 -14 -113.5 -42t-96 -57t-86 -56t-103 -44.5t-128.5 -17.5q-205 0 -341 119.5t-136 294.5v487q0 86 -47 136z
M545 1458h426l-398 -303h-233z" />
    <glyph glyph-name="ucircumflex" unicode="&#xfb;" 
d="M43 1004h467q-47 -50 -47 -136v-456q0 -60 28 -84.5t82 -24.5q43 0 73 19t30 47v499q0 86 -47 136h467q-47 -50 -47 -136v-577q0 -26 12 -55.5t33 -47.5v-4q-59 -14 -113.5 -42t-96 -57t-86 -56t-103 -44.5t-128.5 -17.5q-205 0 -341 119.5t-136 294.5v487q0 86 -47 136z
M133 1155l250 303h336l250 -303h-305l-113 154l-115 -154h-303z" />
    <glyph glyph-name="udieresis" unicode="&#xfc;" 
d="M43 1004h467q-47 -50 -47 -136v-456q0 -60 28 -84.5t82 -24.5q43 0 73 19t30 47v499q0 86 -47 136h467q-47 -50 -47 -136v-577q0 -26 12 -55.5t33 -47.5v-4q-59 -14 -113.5 -42t-96 -57t-86 -56t-103 -44.5t-128.5 -17.5q-205 0 -341 119.5t-136 294.5v487q0 86 -47 136z
M612 1307q0 71 49.5 121.5t120.5 50.5t122.5 -51t51.5 -121q0 -71 -51.5 -121.5t-122.5 -50.5q-72 0 -121 50t-49 122zM145 1307q0 71 49.5 121.5t120.5 50.5t122.5 -51t51.5 -121q0 -71 -51.5 -121.5t-122.5 -50.5q-72 0 -121 50t-49 122z" />
    <glyph glyph-name="yacute" unicode="&#xfd;" 
d="M-31 1004h502q-19 -10 -30 -26.5t-11 -31.5q0 -53 16 -92l123 -295h4l123 295q17 41 17 92q0 15 -11 31.5t-30 26.5h502q-50 -44 -74 -103l-502 -1137q-2 -5 -10.5 -23.5t-12 -27.5t-7 -23t-3.5 -26q0 -41 43 -78h-512q46 46 82 123l199 430l-334 762q-24 59 -74 103z
M563 1458h426l-397 -303h-234z" />
    <glyph glyph-name="thorn" unicode="&#xfe;" 
d="M455 610v-190q42 -55 139 -55q58 0 96.5 46.5t38.5 112.5q0 62 -38.5 105t-96.5 43q-89 0 -139 -62zM455 31v-312q0 -83 47 -133h-447q47 50 47 133v1606q0 83 -47 133h400v-446q30 12 67 18t80 6q135 0 245.5 -70t172 -188t61.5 -256q0 -139 -61.5 -258.5t-172 -191.5
t-245.5 -72q-89 0 -147 31z" />
    <glyph glyph-name="ydieresis" unicode="&#xff;" 
d="M-31 1004h502q-19 -10 -30 -26.5t-11 -31.5q0 -53 16 -92l123 -295h4l123 295q17 41 17 92q0 15 -11 31.5t-30 26.5h502q-50 -44 -74 -103l-502 -1137q-2 -5 -10.5 -23.5t-12 -27.5t-7 -23t-3.5 -26q0 -41 43 -78h-512q46 46 82 123l199 430l-334 762q-24 59 -74 103z
M631 1307q0 71 49.5 121.5t120.5 50.5t122.5 -51t51.5 -121q0 -71 -51.5 -121.5t-122.5 -50.5q-72 0 -121 50t-49 122zM164 1307q0 71 49.5 121.5t120.5 50.5t122.5 -51t51.5 -121q0 -71 -51.5 -121.5t-122.5 -50.5q-72 0 -121 50t-49 122z" />
    <glyph glyph-name="dotlessi" unicode="&#x131;" horiz-adv-x="569" 
d="M51 1004h420v-869q0 -85 47 -135h-467q47 50 47 135v733q0 86 -47 136z" />
    <glyph glyph-name="Lslash" unicode="&#x141;" horiz-adv-x="909" 
d="M578 1323v-254l151 66v-353l-151 -65v-316h129q127 0 190 33v-434h-829q47 50 47 135v387l-111 -47v352l111 47v449q0 85 -47 135h557q-47 -50 -47 -135z" />
    <glyph glyph-name="lslash" unicode="&#x142;" horiz-adv-x="569" 
d="M51 1458h420v-426l98 58v-330l-98 -53v-572q0 -85 47 -135h-467q47 50 47 135v365l-98 -54v306l98 59v512q0 85 -47 135z" />
    <glyph glyph-name="OE" unicode="&#x152;" horiz-adv-x="2048" 
d="M1982 0h-905q-27 0 -56.5 -4t-66.5 -11.5t-47 -9.5q-45 -8 -137 -8q-155 0 -293.5 61.5t-236 164.5t-154.5 243t-57 293t57 293t154.5 243t236 164.5t293.5 61.5q92 0 137 -8q10 -2 47 -9.5t66.5 -11.5t56.5 -4h905v-440q-85 39 -221 39h-274v-154h184q93 0 160 29v-389
q-65 28 -160 28h-184v-170h274q136 0 221 39v-440zM492 729q0 -130 80 -214.5t196 -84.5t196 84.5t80 214.5t-80 214.5t-196 84.5t-196 -84.5t-80 -214.5z" />
    <glyph glyph-name="oe" unicode="&#x153;" horiz-adv-x="1820" 
d="M1778 379h-656q22 -56 77.5 -82.5t119.5 -26.5q114 0 194 62v-348q-15 7 -28 10q-10 2 -31 2q-28 0 -86 -14q-78 -15 -115 -15q-228 0 -342 119q-154 -119 -331 -119q-107 0 -206.5 46.5t-169.5 121.5t-111.5 172t-41.5 195t41.5 194.5t111.5 171.5t169.5 121.5
t206.5 46.5q179 0 329 -112q82 63 159 87.5t185 24.5q100 0 183.5 -29t142 -79.5t98.5 -120t59 -149t19 -166.5q0 -76 23 -113zM584 672q-78 0 -123 -47t-45 -123t45 -123t123 -47t123 47t45 123t-45 123t-123 47zM1108 588h291q-8 55 -47.5 94t-98.5 39t-98 -38.5
t-47 -94.5z" />
    <glyph glyph-name="Scaron" unicode="&#x160;" horiz-adv-x="1024" 
d="M72 -16v591q38 -45 72.5 -79t81 -71t97 -57t99.5 -20q42 0 76 26t34 68q0 23 -10 44.5t-24.5 38t-40.5 36.5t-47 34t-56.5 36.5t-58.5 38.5q-51 34 -89.5 68t-75 81.5t-56 109.5t-19.5 136q0 109 36.5 191.5t102.5 133t152.5 76t192.5 25.5q46 0 119.5 -21.5t82.5 -21.5
q57 0 84 27v-478q-27 54 -87.5 108t-112.5 54q-56 0 -81.5 -19t-25.5 -59q0 -24 12.5 -44.5t38.5 -40.5t51.5 -35.5t67.5 -40t70 -43.5q50 -34 88 -69.5t74 -87t55.5 -121.5t19.5 -155q0 -156 -73 -265.5t-192.5 -160.5t-272.5 -51q-52 0 -143 21.5t-126 21.5
q-63 0 -116 -26zM625 1855h305l-250 -303h-336l-250 303h303l115 -153z" />
    <glyph glyph-name="scaron" unicode="&#x161;" horiz-adv-x="909" 
d="M764 1036v-338q-14 7 -57 29.5t-59.5 29t-51.5 15t-72 8.5q-24 0 -39.5 -13t-15.5 -36q0 -20 21.5 -36t56 -29.5t76 -29t83.5 -40.5t76.5 -58t56 -87.5t21.5 -122.5q0 -92 -37.5 -163t-101.5 -113t-141.5 -63.5t-163.5 -21.5q-59 0 -140.5 19.5t-119.5 21.5
q-45 0 -78 -16v409q61 -51 144 -99t138 -48q103 0 103 57q0 25 -29 46t-72.5 36t-94 41.5t-94 59.5t-72.5 93t-29 138q0 146 96 228.5t246 82.5q26 0 133 -10q86 -12 125 -12q58 0 92 22zM567 1458h305l-249 -303h-336l-250 303h303l115 -153z" />
    <glyph glyph-name="Ydieresis" unicode="&#x178;" horiz-adv-x="1366" 
d="M954 0h-546q43 46 43 92v582l-437 702q-36 56 -69 82h590q-15 -26 -15 -53q0 -35 72 -148l98 -155l98 155q72 113 72 148q0 29 -14 53h577q-19 -19 -55 -69l-455 -715v-582q0 -44 41 -92zM745 1704q0 71 49.5 121.5t120.5 50.5t123 -51t52 -121q0 -71 -52 -121.5
t-123 -50.5q-72 0 -121 50t-49 122zM279 1704q0 71 49.5 121.5t120.5 50.5t122.5 -51t51.5 -121q0 -71 -51.5 -121.5t-122.5 -50.5q-72 0 -121 50t-49 122z" />
    <glyph glyph-name="Zcaron" unicode="&#x17d;" horiz-adv-x="1251" 
d="M145 1026v432h1110l-573 -1057h403q56 0 113 31v-432h-1223l596 1057h-323q-49 0 -103 -31zM739 1855h305l-249 -303h-336l-250 303h303l115 -153z" />
    <glyph glyph-name="zcaron" unicode="&#x17e;" 
d="M205 670v334h983l-498 -701h254q91 0 184 41v-344h-1075l488 700h-199q-75 0 -137 -30zM731 1458h305l-250 -303h-335l-250 303h303l114 -153z" />
    <glyph glyph-name="florin" unicode="&#x192;" horiz-adv-x="1251" 
d="M150 557v322h276l16 133q11 83 30.5 150t58 130t93.5 105.5t138.5 68t189.5 25.5q40 0 90 -12q54 -13 64 -13q50 0 78 19l-66 -381q-35 31 -84 31q-78 0 -122 -49t-52 -119l-10 -88h256v-318q-24 19 -68 19h-223l-90 -646q-24 -173 -141 -260.5t-305 -87.5
q-40 0 -106 11.5t-87 11.5q-33 0 -70 -15l43 386q19 -18 51.5 -27.5t61.5 -9.5q64 0 104 38t48 97l65 502h-149q-49 0 -90 -23z" />
    <glyph glyph-name="circumflex" unicode="&#x2c6;" horiz-adv-x="569" 
d="M-133 1155l250 303h336l249 -303h-305l-112 154l-115 -154h-303z" />
    <glyph glyph-name="caron" unicode="&#x2c7;" horiz-adv-x="569" 
d="M397 1458h305l-249 -303h-336l-250 303h303l115 -153z" />
    <glyph glyph-name="uni02C9" unicode="&#x2c9;" horiz-adv-x="569" 
d="M672 1221h-772v184h772v-184z" />
    <glyph glyph-name="breve" unicode="&#x2d8;" horiz-adv-x="569" 
d="M-86 1475h162q6 -71 74 -103q51 -26 131 -26q87 0 141 28.5t76 100.5h159q-3 -82 -33.5 -144t-83 -98.5t-117 -54t-140.5 -17.5q-352 0 -369 314z" />
    <glyph glyph-name="dotaccent" unicode="&#x2d9;" horiz-adv-x="569" 
d="M113 1307q0 71 49.5 121.5t120.5 50.5t122.5 -51t51.5 -121q0 -71 -51.5 -121.5t-122.5 -50.5q-72 0 -121 50t-49 122z" />
    <glyph glyph-name="ring" unicode="&#x2da;" horiz-adv-x="569" 
d="M184 1386q0 -43 29 -72.5t70 -29.5q43 0 72.5 29.5t29.5 72.5t-29.5 73t-72.5 30q-41 0 -70 -30t-29 -73zM285 1616q96 0 163.5 -67t67.5 -163t-67.5 -162.5t-163.5 -66.5t-164 66.5t-68 162.5t68 163t164 67z" />
    <glyph glyph-name="ogonek" unicode="&#x2db;" horiz-adv-x="569" 
d="M543 -250l41 -76q-174 -123 -310 -123q-100 0 -161.5 49.5t-61.5 139.5q0 68 72.5 136.5t183 113.5t221.5 53v-25q-276 -104 -276 -256q0 -46 30 -73t76 -27q76 0 185 88z" />
    <glyph glyph-name="tilde" unicode="&#x2dc;" horiz-adv-x="569" 
d="M522 1454h162q-14 -127 -79.5 -199.5t-188.5 -72.5q-59 0 -158 39q-98 36 -129 36q-30 0 -54.5 -28.5t-29.5 -59.5h-162q7 70 36.5 134t86.5 109.5t129 45.5q62 0 168 -39q7 -3 27.5 -11.5t29 -12t23.5 -8.5t26 -7t21 -2q68 0 92 76z" />
    <glyph glyph-name="hungarumlaut" unicode="&#x2dd;" horiz-adv-x="569" 
d="M147 1155h-167l126 303h265zM494 1155h-164l121 303h274z" />
    <glyph glyph-name="uni03A9" unicode="&#x3a9;" horiz-adv-x="1560" 
d="M332 315v7q-102 90 -173 222t-71 298q0 99 30 193.5t90 177t142 144.5t193.5 98t238.5 36q133 0 247.5 -39.5t192.5 -104.5t134 -148.5t82 -170.5t26 -172q0 -166 -69 -300.5t-178 -233.5v-7h278v-315h-653v236q215 136 215 534q0 182 -73.5 290.5t-201.5 108.5
q-126 0 -205 -112.5t-79 -302.5q0 -201 59 -334.5t156 -183.5v-236h-656v315h275z" />
    <glyph glyph-name="uni03BC" unicode="&#x3bc;" 
d="M463 -23v-391h-420q47 50 47 135v1147q0 86 -47 136h467q-47 -50 -47 -136v-456q0 -60 28 -84.5t82 -24.5q43 0 73 19t30 47v499q0 86 -47 136h467q-47 -50 -47 -136v-577q0 -55 45 -103v-4q-59 -14 -113.5 -42t-96 -57t-86 -56t-103 -44.5t-128.5 -17.5q-49 0 -104 10z
" />
    <glyph glyph-name="pi" unicode="&#x3c0;" horiz-adv-x="1402" 
d="M1354 784h-129v-456q0 -214 24 -328h-391q-39 63 -39 313v471h-201q-5 -173 -36 -404t-80 -380h-391q48 198 80.5 425t29.5 359q-127 0 -186 -14l-35 258q40 40 144.5 63t261.5 23h978z" />
    <glyph glyph-name="endash" unicode="&#x2013;" horiz-adv-x="1024" 
d="M1024 393h-1024v217h1024v-217z" />
    <glyph glyph-name="emdash" unicode="&#x2014;" horiz-adv-x="2048" 
d="M2048 393h-2048v217h2048v-217z" />
    <glyph glyph-name="quoteleft" unicode="&#x2018;" horiz-adv-x="569" 
d="M-74 1458h502q-27 -48 -27 -86q0 -27 13 -94l75 -383h-288q22 22 22 49q0 26 -24 72l-170 315q-40 70 -103 127z" />
    <glyph glyph-name="quoteright" unicode="&#x2019;" horiz-adv-x="569" 
d="M141 1458h502q-61 -55 -102 -127l-170 -315q-25 -48 -25 -72q0 -26 23 -49h-289l76 383q12 62 12 94q0 38 -27 86z" />
    <glyph glyph-name="quotesinglbase" unicode="&#x201a;" horiz-adv-x="569" 
d="M80 412h502q-63 -57 -103 -127l-170 -316q-24 -46 -24 -71q0 -28 22 -50h-289l76 383q12 62 12 95q0 40 -26 86z" />
    <glyph glyph-name="quotedblleft" unicode="&#x201c;" 
d="M-88 1458h502q-27 -48 -27 -86q0 -32 12 -94l76 -383h-289q23 23 23 49q0 24 -25 72l-170 315q-41 72 -102 127zM545 1458h502q-27 -48 -27 -86q0 -32 12 -94l76 -383h-289q23 23 23 49q0 24 -25 72l-170 315q-41 72 -102 127z" />
    <glyph glyph-name="quotedblright" unicode="&#x201d;" 
d="M725 1458h502q-63 -57 -103 -127l-170 -315q-24 -46 -24 -72q0 -27 22 -49h-288l75 383q13 67 13 94q0 38 -27 86zM92 1458h502q-61 -55 -102 -127l-170 -315q-25 -48 -25 -72q0 -27 22 -49h-288l75 383q13 67 13 94q0 38 -27 86z" />
    <glyph glyph-name="quotedblbase" unicode="&#x201e;" 
d="M725 412h502q-63 -57 -103 -127l-170 -316q-24 -46 -24 -71q0 -28 22 -50h-288l75 383q13 67 13 95q0 38 -27 86zM92 412h502q-61 -55 -102 -127l-170 -316q-25 -48 -25 -71q0 -28 22 -50h-288l75 383q13 67 13 95q0 38 -27 86z" />
    <glyph glyph-name="dagger" unicode="&#x2020;" horiz-adv-x="1251" 
d="M819 -379h-389q33 64 33 111v1013h-236q-41 0 -118 -28v315q12 -5 57 -18q33 -10 61 -10h236v344q0 46 -33 110h389q-33 -64 -33 -110v-344h236q39 0 121 28v-315q-82 28 -121 28h-236v-1013q0 -47 33 -111z" />
    <glyph glyph-name="daggerdbl" unicode="&#x2021;" horiz-adv-x="1251" 
d="M463 238v507h-236q-41 0 -118 -28v315q12 -5 57 -18q33 -10 61 -10h236v344q0 46 -33 110h389q-33 -64 -33 -110v-344h236q39 0 121 28v-315q-82 28 -121 28h-236v-507h236q39 0 121 28v-315q-85 29 -121 29h-236v-248q0 -47 33 -111h-389q33 64 33 111v248h-236
q-38 0 -118 -29v315q77 -28 118 -28h236z" />
    <glyph glyph-name="bullet" unicode="&#x2022;" horiz-adv-x="1024" 
d="M512 1075q150 0 254 -104t104 -254q0 -151 -104 -255t-254 -104t-254 104t-104 255q0 150 104 254t254 104z" />
    <glyph glyph-name="ellipsis" unicode="&#x2026;" horiz-adv-x="2048" 
d="M344 442q97 0 162 -66t65 -165t-65 -165t-162 -66t-162 66t-65 165t65 165t162 66zM1026 442q97 0 162 -66t65 -165t-65 -165t-162 -66t-162 66t-65 165t65 165t162 66zM1708 442q97 0 162 -66t65 -165t-65 -165t-162 -66t-162 66t-65 165t65 165t162 66z" />
    <glyph glyph-name="perthousand" unicode="&#x2030;" horiz-adv-x="2048" 
d="M922 322q0 -42 31 -73.5t73 -31.5q43 0 75 31t32 74q0 42 -32 73t-75 31q-42 0 -73 -31t-31 -73zM705 322q0 133 94.5 227t228.5 94t228 -94t94 -227q0 -134 -94 -228t-228 -94t-228.5 94.5t-94.5 227.5zM1393 322q0 133 94.5 227t228.5 94t228 -94t94 -227
q0 -134 -94 -228t-228 -94t-228.5 94.5t-94.5 227.5zM1610 322q0 -42 31 -73.5t73 -31.5q43 0 75 31t32 74q0 42 -32 73t-75 31q-42 0 -73 -31t-31 -73zM227 1137q0 -42 31.5 -73.5t73.5 -31.5q43 0 74.5 31t31.5 74t-31.5 73.5t-74.5 30.5q-42 0 -73.5 -31t-31.5 -73z
M10 1137q0 133 95 227t229 94t227.5 -94t93.5 -227q0 -134 -94 -228t-227 -94q-134 0 -229 94.5t-95 227.5zM918 1491h307q-36 -22 -78 -100l-715 -1276q-26 -50 -26 -82q0 -29 16 -66h-297q58 66 76 99l714 1259q33 60 33 86q0 39 -30 80z" />
    <glyph glyph-name="guilsinglleft" unicode="&#x2039;" horiz-adv-x="681" 
d="M334 829h254l-244 -331l246 -322h-252l-246 326z" />
    <glyph glyph-name="guilsinglright" unicode="&#x203a;" horiz-adv-x="681" 
d="M94 829h254l242 -327l-246 -326h-252l246 322z" />
    <glyph glyph-name="fraction" unicode="&#x2044;" horiz-adv-x="342" 
d="M352 1491h332q-36 -22 -78 -100l-616 -1276q-27 -52 -27 -82q0 -27 17 -66h-322q58 66 76 99l616 1259q33 60 33 86q0 38 -31 80z" />
    <glyph glyph-name="Euro" unicode="&#x20ac;" horiz-adv-x="1251" 
d="M1180 -33q-30 11 -43 13q-12 4 -45 4q-5 0 -13 -1.5t-21.5 -3.5t-23.5 -4q-50 -8 -106 -8q-251 0 -430 155.5t-238 399.5h-110q-29 0 -95 -12l33 170h150q0 8 -1 24.5t-1 24.5v45h-91q-28 0 -94 -12l33 170h174q27 120 85 221.5t141.5 177t197.5 118t246 42.5
q52 0 106 -8l58 -8q41 0 88 16v-533q-101 115 -242 115q-175 0 -242 -141h281q28 0 94 12l-33 -170h-381q-2 -16 -2 -49q0 -5 -0.5 -14t-0.5 -17t1 -14h271q30 0 96 12l-35 -170h-289q70 -137 240 -137q145 0 242 129v-547z" />
    <glyph glyph-name="afii61289" unicode="&#x2113;" horiz-adv-x="1216" 
d="M1028 469l156 -168q-49 -93 -112.5 -160t-132.5 -102.5t-135.5 -51.5t-137.5 -16q-356 0 -430 297q-3 9 -3 17q-18 -11 -50.5 -34.5t-47.5 -33.5l-94 201q27 22 91 69t95 74v459q0 280 122.5 432t330.5 152q90 0 159.5 -32t112 -88.5t63.5 -129t21 -158.5
q0 -171 -105 -335t-315 -353l2 -94q5 -51 44 -87t102 -36q70 0 139 50t125 128zM616 1044v-192q77 91 122.5 191.5t45.5 170.5q0 119 -77 119q-91 0 -91 -289z" />
    <glyph glyph-name="trademark" unicode="&#x2122;" horiz-adv-x="2048" 
d="M778 1458v-188h-229v-656h-246v656h-229v188h704zM1290 1458l183 -489l182 489h319v-844h-221v553h-4l-186 -553h-181l-186 553h-4v-553h-221v844h319z" />
    <glyph glyph-name="Omega" unicode="&#x2126;" horiz-adv-x="1560" 
d="M332 315v7q-102 90 -173 222t-71 298q0 99 30 193.5t90 177t142 144.5t193.5 98t238.5 36q133 0 247.5 -39.5t192.5 -104.5t134 -148.5t82 -170.5t26 -172q0 -166 -69 -300.5t-178 -233.5v-7h278v-315h-653v236q215 136 215 534q0 182 -73.5 290.5t-201.5 108.5
q-126 0 -205 -112.5t-79 -302.5q0 -201 59 -334.5t156 -183.5v-236h-656v315h275z" />
    <glyph glyph-name="estimated" unicode="&#x212e;" horiz-adv-x="1837" 
d="M1763 709h-1370q-10 0 -10 -11v-413q0 -28 16 -47q102 -107 236 -166.5t285 -59.5q160 0 301 67t243 185h121q-115 -136 -291.5 -215.5t-378.5 -79.5q-171 0 -327 60t-269 162t-180 242.5t-67 295.5t67 296t180 243t269 162.5t327 60.5q173 0 330 -60.5t270.5 -162.5
t180.5 -243t67 -296v-20zM1452 762v418q0 29 -20 49q-101 101 -233.5 158t-278.5 57q-148 0 -282.5 -59t-234.5 -162q-20 -20 -20 -54v-407q0 -4 3 -9t7 -5h1051q8 0 8 14z" />
    <glyph glyph-name="partialdiff" unicode="&#x2202;" horiz-adv-x="1331" 
d="M225 1243l-104 289q183 129 448 129q140 0 261.5 -55t212 -157t142.5 -256.5t52 -342.5q0 -409 -184 -642t-490 -233q-97 0 -181 33t-140.5 87t-97.5 122t-59.5 137.5t-18.5 134.5q0 254 135.5 410t351.5 156q56 0 107 -15t86.5 -39t58.5 -45.5t37 -42.5h4v43
q0 50 -12.5 102t-39.5 102.5t-65 90t-94 64t-121 24.5q-159 0 -289 -96zM606 299h2q41 0 78 32t61.5 82t41 102t22.5 101q-8 41 -54.5 84t-113.5 43q-85 0 -132.5 -80t-47.5 -190q0 -71 40.5 -122.5t102.5 -51.5z" />
    <glyph glyph-name="Delta" unicode="&#x2206;" horiz-adv-x="1474" 
d="M45 0v209l457 1284h485l436 -1280v-213h-1378zM467 315h518l-160 439q-12 49 -48.5 174.5t-47.5 171.5h-6q-8 -32 -41.5 -146t-48.5 -174z" />
    <glyph glyph-name="product" unicode="&#x220f;" horiz-adv-x="1632" 
d="M1585 1116h-209v-1319h-395v1319h-332v-1319h-395v1319h-209v352h1540v-352z" />
    <glyph glyph-name="summation" unicode="&#x2211;" horiz-adv-x="1247" 
d="M1214 -203h-1165v240l467 596l-450 565v270h1108v-331h-576v-9l367 -432l-420 -534v-8h669v-357z" />
    <glyph glyph-name="minus" unicode="&#x2212;" horiz-adv-x="1228" 
d="M1114 383h-999v238h999v-238z" />
    <glyph glyph-name="uni2215" unicode="&#x2215;" horiz-adv-x="342" 
d="M352 1491h332q-36 -22 -78 -100l-616 -1276q-27 -52 -27 -82q0 -27 17 -66h-322q58 66 76 99l616 1259q33 60 33 86q0 38 -31 80z" />
    <glyph glyph-name="uni2219" unicode="&#x2219;" horiz-adv-x="624" 
d="M313 727q93 0 159.5 -66t66.5 -159t-66.5 -159.5t-159.5 -66.5t-159 66t-66 160q0 93 66 159t159 66z" />
    <glyph glyph-name="radical" unicode="&#x221a;" horiz-adv-x="1353" 
d="M1399 1774l-506 -2055h-305l-307 865l-160 -66l-60 205l451 186l180 -561q21 -93 51 -209l2 -2q3 18 17 100t24 134l342 1403h271z" />
    <glyph glyph-name="infinity" unicode="&#x221e;" horiz-adv-x="1667" 
d="M1573 606v-4q0 -93 -31.5 -170.5t-83 -127t-116.5 -76.5t-134 -27q-48 0 -87 7.5t-88 29.5t-99 70.5t-98 121.5q-89 -115 -177.5 -172t-207.5 -57q-143 0 -250 108t-107 281q0 176 107.5 285.5t269.5 109.5q116 0 204 -52.5t169 -164.5q3 4 21 24.5t25 28.5t26.5 28.5
t31 30t33 26.5t38.5 26t42 21t48 18t51.5 10t58.5 4q146 -2 250 -106.5t104 -272.5zM473 401h4q70 0 128 46.5t122 132.5q-72 107 -101 138q-67 70 -155 70q-78 0 -126 -53t-48 -145q-1 -76 51.5 -132.5t124.5 -56.5zM1198 788h-2q-50 0 -101 -33t-74 -60t-68 -86
q-6 -7 -9 -11q85 -119 138.5 -158t127.5 -39q71 0 114.5 61t43.5 126q0 83 -46.5 141.5t-123.5 58.5z" />
    <glyph glyph-name="integral" unicode="&#x222b;" horiz-adv-x="931" 
d="M883 1817l-33 -261q-50 13 -78 13q-71 0 -108 -60q-43 -65 -43 -327q0 -170 18 -457t18 -500q0 -280 -65 -413q-34 -72 -92.5 -119t-121 -65.5t-132.5 -18.5q-121 0 -197 35l41 272q45 -18 92 -18q65 0 92 36q45 64 45 287q0 216 -18 514t-18 486q0 192 34.5 308
t110.5 197q52 56 133.5 84.5t171.5 28.5q86 0 150 -22z" />
    <glyph glyph-name="approxequal" unicode="&#x2248;" horiz-adv-x="1173" 
d="M975 1006l131 -129q-63 -110 -147 -173t-166 -63q-64 0 -114 18t-120 64q-4 2 -17 10.5t-17 11t-15.5 9.5t-16.5 9t-15.5 7.5t-17 7.5t-16.5 5t-18 4.5t-18.5 2.5t-20.5 1q-13 0 -26 -2.5t-23.5 -5.5t-23 -11t-20 -12t-19.5 -16t-17.5 -17t-18 -20t-16 -19.5t-17.5 -22
t-16 -20.5l-131 127q50 97 143.5 165.5t194.5 68.5q48 0 92 -12t66.5 -24t58.5 -34q6 -4 22.5 -14.5t21.5 -13.5t18 -11t17.5 -10.5t15.5 -8.5t16 -7.5t14 -5t16 -4.5t15 -2t16 -1q54 0 96.5 37.5t92.5 110.5zM975 571l131 -129q-62 -109 -146.5 -172t-171.5 -63
q-60 0 -109.5 18.5t-119.5 61.5q-77 50 -107 61q-30 10 -63 10q-15 0 -29 -2t-27.5 -8.5t-23.5 -11t-23 -16.5t-20 -18t-20.5 -22t-18 -22t-19 -25t-18.5 -24l-131 129q50 96 144.5 163.5t195.5 67.5q67 0 115 -17.5t98 -47.5q9 -6 42.5 -27.5t46.5 -28.5t37 -15.5t46 -8.5
q30 0 54.5 9.5t49 33t41 44t46.5 60.5z" />
    <glyph glyph-name="notequal" unicode="&#x2260;" horiz-adv-x="1173" 
d="M895 1102l-70 -162h252v-215h-332l-108 -260h440v-215h-524l-98 -234l-170 68l71 166h-260v215h342l107 260h-449v215h531l98 229z" />
    <glyph glyph-name="lessequal" unicode="&#x2264;" horiz-adv-x="1173" 
d="M1071 231l-967 467v234l967 467v-246l-756 -336v-4l756 -336v-246zM1079 -59h-979v221h979v-221z" />
    <glyph glyph-name="greaterequal" unicode="&#x2265;" horiz-adv-x="1173" 
d="M111 1399l966 -467v-236l-966 -465v246l755 336v6l-755 334v246zM1073 -59h-971v221h971v-221z" />
    <glyph glyph-name="lozenge" unicode="&#x25ca;" horiz-adv-x="1351" 
d="M1257 731l-432 -840h-313l-416 840l430 844h314zM913 723l-192 416q-33 92 -39 131h-8q-17 -69 -41 -131l-193 -400l193 -424q14 -40 37 -122h10q22 86 35 118z" />
    </font>
</defs>
</svg>
