<?xml version="1.0" encoding="utf-8"?>
<!-- Generator: Adobe Illustrator 26.2.1, SVG Export Plug-In . SVG Version: 6.00 Build 0)  -->
<svg version="1.1" id="Layer_1" xmlns="http://www.w3.org/2000/svg" xmlns:xlink="http://www.w3.org/1999/xlink" x="0px" y="0px"
	 viewBox="0 0 784.19 497.39" style="enable-background:new 0 0 784.19 497.39;" xml:space="preserve">
<g>
	<g>
		<path d="M100.79,201.17l22.78-73.34l22.78,73.34h54.88l19.9-88.97c4.05,53.78,47.73,94.94,103.17,94.94
			c47.33,0,85.45-29.79,98.58-71.11v65.13h57.39v-72.72l33.99,72.72H630.8v-95.76l70.71,95.76h44.83V6.89h-57.11v87.66L628.02,6.89
			h-54.33v180.69l-37.15-65.51c10.76-4.99,19.12-12.16,25.06-21.51c5.94-9.34,8.91-20.03,8.91-32.06c0-11.84-2.84-22.44-8.49-31.78
			c-5.68-9.34-14.07-16.65-25.22-21.92s-24.61-7.91-40.39-7.91h-94.36l20.81,25.58V72c-13.15-41.37-51.3-71.09-98.58-71.09
			c-39.31,0-72.09,20.49-89.67,50.92l10.04-44.95h-59.89l-19.16,95.51L123.56,3.56L81.51,102.4L62.33,6.89H2.44l43.45,194.28
			C45.89,201.17,100.79,201.17,100.79,201.17z M480.26,52.41h6.7c8.17,0,14.49,1.89,18.94,5.69c4.46,3.8,6.68,8.93,6.68,15.4
			c0,6.49-2.23,11.61-6.68,15.4c-4.46,3.8-10.76,5.69-18.94,5.69h-6.7V52.41z M324.31,59.56c24.78,0,44.64,18.61,44.64,44.47
			c0,25.78-19.79,44.47-44.64,44.47c-24.89,0-44.64-18.73-44.64-44.47C279.67,78.19,299.49,59.56,324.31,59.56z M745.8,274.03
			l33.77-36.43H674.73l11.26-12.14H538.17l-33.77,36.43h104.84l-11.26,12.14H745.8z M183.63,274.03l-11.26-12.14h104.84
			l-33.77-36.43H95.62l11.26,12.14H2.04l33.77,36.43H183.63z M527.95,419.6h54.59v-50.22h-54.59v-20.81h67.97l-6.96-50.22H470.84
			v61.39c-14.19-36.87-50.26-61.39-94.6-61.39h-68.8v146.11L258.2,298.34h-68.8l-65.47,194.28h54.12l69.71-51.7l14.06,51.7h114.43
			c44.42,0,80.42-24.57,94.6-61.4v61.4h120.63l6.96-50.22h-70.48L527.95,419.6L527.95,419.6z M202.05,433.11l21.87-79.85
			l21.72,79.85H202.05z M373.72,438.74h-8.36v-86.6h8.36c28.51,0,44.57,17.84,44.57,43.3C418.29,421.36,401.79,438.74,373.72,438.74
			z M671.68,298.31h-68.8v194.28h68.8c57.6,0,101.13-41.31,101.13-97.14C772.81,339.22,728.87,298.31,671.68,298.31z M672.66,438.74
			h-8.36v-86.6h8.36c28.17,0,44.57,17.5,44.57,43.3C717.23,420.91,701.17,438.74,672.66,438.74z M144.37,372.97H92.56v-22.76h66
			l17.48-51.91H6.55l28.07,34.5v159.77h57.94v-67.72h35.11L144.37,372.97z M404.16,243.43l-16.82-17.9h-16.84v48.5h19.77v-17.82
			l16.78,17.82h16.68v-48.5h-19.6v17.9H404.16z M462.29,225.53h-25.61v48.5h25.61c13.96,0,24.84-10.12,24.84-24.25
			C487.11,235.92,476.52,225.53,462.29,225.53z M461.06,256.06h-4.96V243.5h4.96c4.01,0,6.36,2.53,6.36,6.28
			C467.42,253.51,465.09,256.06,461.06,256.06z M315.78,274.03l20.17-11.69l4.71,11.69h21.64l-24.74-48.43l0.04-0.08h-16.97
			l0.04,0.08l-24.74,48.43H315.78z M329.1,245.32l5.28,13.09h-10.4L329.1,245.32z"/>
	</g>
</g>
</svg>
